<svg xmlns="http://www.w3.org/2000/svg" width="1920" height="605" fill="none" viewBox="0 0 1920 605"><mask id="mask0" width="1920" height="605" x="0" y="0" mask-type="alpha" maskUnits="userSpaceOnUse"><rect width="1920" height="605" fill="#C4C4C4"/></mask><g mask="url(#mask0)"><path fill="url(#paint0_linear)" d="M4 220L-60 246.5V397H1283L1161.5 222L1153.5 216.5L1139.5 223.5L1077.5 279.5L1024 304.5L993.5 292.5L927 233.5L892.5 181.5L885 153.5L871 112.5L846.5 84.5L799.5 132.5L776 153.5L744.5 182L723.5 194.5L704 182L526.5 235.5L483 237.5L445 234.5L392 221L331.5 194.5L314 182L244.5 165.5L216 148L200.5 125L178.5 73L162.5 55L148 65L135.5 77L130.5 85.5L115.5 88.5L79.5 143.5L47 164L4 220Z"/><path fill="url(#paint1_linear)" d="M1856 172L1888 145L1916.5 163.5L1936.5 176.5L1914.5 172.5L1894.5 177.5L1879 173L1864.5 176.5L1847 174.5L1856 172Z"/><path fill="#E6EDF3" d="M135.5 77L148 65L162.5 55L179.5 73L198.5 120.5L174 129L147 115L115.5 108L98.5 114.5L115.5 88.5L127.5 85L135.5 77Z"/><path fill="url(#paint2_linear)" d="M1967.98 195.851L2016 236.419V325H1432L1542.92 267.311L1646.77 222.648L1670.59 227.115L1690.31 241.63L1761.41 192.873L1774.81 188.407L1828.5 179.5L1856 172L1888 145L1924.44 168.681L1967.98 195.851Z"/><path fill="url(#paint3_linear)" d="M1202.5 258L1086 364H1458L1579 258L1447.5 195.5L1416.5 143L1411 123.5L1395.5 108L1393.5 114.5L1378.5 125.5L1370.5 136L1358 158.5L1333 181.5L1324 186.5L1310.5 175L1301.5 163L1292 175L1288 177L1277 200.5L1245 230L1218.5 241L1202.5 258Z"/><path fill="#C8CEE1" d="M1387 116L1395.5 107.5L1411 123.5L1416.5 143L1430.5 166.5L1398.5 151L1360.5 173L1333 181.5L1358 158.5L1370.5 136L1378.5 125.5L1387 116Z"/><path fill="#C8CEE1" d="M1283 188L1287.5 177L1292 175L1301.5 163L1310.5 175L1319 182L1306.5 186L1296 183L1283 188Z"/><path fill="#000" fill-opacity=".06" d="M115.5 142L152 217.5L115.5 176.5L77 164L57 169L88 152L115.5 108L124.5 94L115.5 142Z"/><path fill="#E6EDF3" d="M799.5 132.5L846 84L871.5 113L885.5 151L891.5 177L871.5 164L828.5 151L810.5 148.5L799.5 141L780.5 149.5L799.5 132.5Z"/><path fill="#BFC9ED" d="M1812.5 182.5L1829.5 178.5L1841 172.5L1887.5 144L1951 186.5L1902 174.5L1894.5 177L1879 172.5L1836 180.5L1812.5 182.5Z"/><path fill="#000" fill-opacity=".06" d="M178.5 73L201 126L226 164L283.5 191L245 188.5L205.5 178H178.5L186.5 156L182.5 126L163.5 57L178.5 73Z"/><path fill="#000" fill-opacity=".06" d="M330 216.5L357 222L340.5 208.5L334.5 195.5L331 194L333.5 208.5L330 216.5Z"/><path fill="#000" fill-opacity=".06" d="M921 273L876 224L852.5 194L822.5 196L833.5 187L864 140L857 90.5L871.5 114L887 179.5L921 273Z"/><path fill="#000" fill-opacity=".06" d="M711 195L697.5 201.5L701.5 192.5L704 182L723.5 194.5L711 195Z"/><path fill="#000" fill-opacity=".06" d="M1152.5 310L1226.5 243L1190.5 290.5L1183.5 307L1156.5 312.5L1152.5 310Z"/><path fill="#000" fill-opacity=".06" d="M1285.5 282.5L1332.5 229L1317 260L1302.5 276L1285.5 282.5Z"/><path fill="#000" fill-opacity=".06" d="M1311.5 189.5L1324 186.5L1310.5 175.5L1301.5 163.5L1307.5 185.5L1288.5 216.5L1286 228L1305 219L1302.5 204.5L1311.5 189.5Z"/><path fill="#000" fill-opacity=".06" d="M1354.5 200.5L1393.5 143.5L1386.5 178.5L1389 208L1372.5 192L1354.5 200.5Z"/><path fill="#000" fill-opacity=".06" d="M1414 171L1403.5 220L1418.5 230.5L1426.5 242.5L1452 232.5L1488 228L1442.5 210L1408 148L1414 171Z"/><path fill="#000" fill-opacity=".06" d="M1948 183.5L1888 145L1905 169L1902.5 186.5L1881 219L1946.5 209.5L1948 183.5Z"/><path fill="#000" fill-opacity=".06" d="M1785.5 198.5L1812.91 190.806L1785.5 202.5L1771 212.5L1764.5 219L1774 206L1785.5 198.5Z"/><path fill="#000" fill-opacity=".06" d="M1860 231.5L1884.5 233L1853 243.5L1820.5 249L1844.5 240L1860 231.5Z"/><path fill="#E6EDF3" d="M1151.5 207.5L1139.5 223.5L1153.5 216.5L1161.5 222L1155.5 213.5L1151.5 207.5Z"/></g><defs><linearGradient id="paint0_linear" x1="938" x2="938" y1="74" y2="371" gradientUnits="userSpaceOnUse"><stop stop-color="#92A8F2"/><stop offset="1"/></linearGradient><linearGradient id="paint1_linear" x1="938" x2="938" y1="74" y2="371" gradientUnits="userSpaceOnUse"><stop stop-color="#92A8F2"/><stop offset="1"/></linearGradient><linearGradient id="paint2_linear" x1="1724" x2="1724" y1="145" y2="325" gradientUnits="userSpaceOnUse"><stop stop-color="#2F469E"/><stop offset="1"/></linearGradient><linearGradient id="paint3_linear" x1="1332" x2="1332" y1="134.5" y2="345.5" gradientUnits="userSpaceOnUse"><stop stop-color="#7691EA"/><stop offset="1"/></linearGradient></defs></svg>