<svg xmlns="http://www.w3.org/2000/svg" xmlns:xlink="http://www.w3.org/1999/xlink" width="1920" zoomAndPan="magnify" viewBox="0 0 1440 487.499991" height="650" preserveAspectRatio="xMidYMid meet" version="1.0"><defs><clipPath id="id1"><path d="M 0.738281 280 L 648 280 L 648 487 L 0.738281 487 Z M 0.738281 280 " clip-rule="nonzero"/></clipPath><clipPath id="id2"><path d="M 0.738281 280 L 648 280 L 648 437 L 0.738281 437 Z M 0.738281 280 " clip-rule="nonzero"/></clipPath><clipPath id="id3"><path d="M 0.738281 432 L 648 432 L 648 487 L 0.738281 487 Z M 0.738281 432 " clip-rule="nonzero"/></clipPath><clipPath id="id4"><path d="M 0.738281 344 L 648 344 L 648 487 L 0.738281 487 Z M 0.738281 344 " clip-rule="nonzero"/></clipPath><clipPath id="id5"><path d="M 625.277344 260 L 701 260 L 701 285 L 625.277344 285 Z M 625.277344 260 " clip-rule="nonzero"/></clipPath><clipPath id="id6"><path d="M 667 287 L 841 287 L 841 340.898438 L 667 340.898438 Z M 667 287 " clip-rule="nonzero"/></clipPath><clipPath id="id7"><path d="M 812 305 L 839 305 L 839 340.898438 L 812 340.898438 Z M 812 305 " clip-rule="nonzero"/></clipPath><clipPath id="id8"><path d="M 802 304 L 830 304 L 830 340.898438 L 802 340.898438 Z M 802 304 " clip-rule="nonzero"/></clipPath><clipPath id="id9"><path d="M 789 302 L 818 302 L 818 340.898438 L 789 340.898438 Z M 789 302 " clip-rule="nonzero"/></clipPath><clipPath id="id10"><path d="M 774 300 L 806 300 L 806 340.898438 L 774 340.898438 Z M 774 300 " clip-rule="nonzero"/></clipPath><clipPath id="id11"><path d="M 758 298 L 793 298 L 793 340.898438 L 758 340.898438 Z M 758 298 " clip-rule="nonzero"/></clipPath><clipPath id="id12"><path d="M 740 296 L 779 296 L 779 340.898438 L 740 340.898438 Z M 740 296 " clip-rule="nonzero"/></clipPath><clipPath id="id13"><path d="M 719 293 L 762 293 L 762 340.898438 L 719 340.898438 Z M 719 293 " clip-rule="nonzero"/></clipPath><clipPath id="id14"><path d="M 696 291 L 744 291 L 744 340.898438 L 696 340.898438 Z M 696 291 " clip-rule="nonzero"/></clipPath><clipPath id="id15"><path d="M 679 339 L 683 339 L 683 340.898438 L 679 340.898438 Z M 679 339 " clip-rule="nonzero"/></clipPath><clipPath id="id16"><path d="M 666 146.101562 L 763 146.101562 L 763 263 L 666 263 Z M 666 146.101562 " clip-rule="nonzero"/></clipPath><clipPath id="id17"><path d="M 822 321 L 834 321 L 834 340.898438 L 822 340.898438 Z M 822 321 " clip-rule="nonzero"/></clipPath><clipPath id="id18"><path d="M 643 287 L 685 287 L 685 340.898438 L 643 340.898438 Z M 643 287 " clip-rule="nonzero"/></clipPath><clipPath id="id19"><path d="M 474 285 L 966 285 L 966 487 L 474 487 Z M 474 285 " clip-rule="nonzero"/></clipPath><clipPath id="id20"><path d="M 474 379 L 966 379 L 966 487 L 474 487 Z M 474 379 " clip-rule="nonzero"/></clipPath></defs><g clip-path="url(#id1)"><path fill="rgb(30.589294%, 78.819275%, 96.078491%)" d="M 576.945312 312.070312 C 565.332031 319.796875 555.589844 330.457031 542.871094 336.1875 C 500.917969 355.097656 466.066406 289.707031 433.425781 305.882812 C 423.402344 310.847656 416.597656 320.347656 409.511719 328.996094 C 402.425781 337.644531 393.839844 346.230469 382.792969 348 C 363.101562 351.148438 346.453125 331.722656 326.566406 330.246094 C 300.1875 328.289062 279.023438 357.964844 252.707031 355.285156 C 227.765625 352.746094 215.914062 324.355469 198.859375 306.003906 C 140.726562 243.453125 74.597656 310.949219 22.386719 337.425781 C -2.144531 349.867188 -31.925781 351.492188 -57.699219 341.910156 C -58.578125 341.582031 -59.453125 341.242188 -60.324219 340.890625 C -100.183594 324.714844 -127.515625 323.09375 -144.09375 345.8125 L -144.09375 635.234375 L 647.960938 635.234375 L 647.960938 300.972656 C 623.300781 295.707031 595.117188 299.984375 576.945312 312.070312 Z M 576.945312 312.070312 " fill-opacity="1" fill-rule="nonzero"/></g><g clip-path="url(#id2)"><path fill="rgb(69.40918%, 89.019775%, 98.039246%)" d="M 576.945312 312.070312 C 565.332031 319.796875 555.589844 330.457031 542.871094 336.1875 C 500.917969 355.097656 466.066406 289.707031 433.425781 305.882812 C 423.402344 310.847656 416.597656 320.347656 409.511719 328.996094 C 402.425781 337.644531 393.839844 346.230469 382.792969 348 C 363.101562 351.148438 346.453125 331.722656 326.566406 330.246094 C 300.1875 328.289062 279.023438 357.964844 252.707031 355.285156 C 227.765625 352.746094 215.914062 324.355469 198.859375 306.003906 C 140.726562 243.453125 74.597656 310.949219 22.386719 337.425781 C -2.144531 349.867188 -31.925781 351.492188 -57.699219 341.910156 C -58.578125 341.582031 -59.453125 341.242188 -60.324219 340.890625 C -100.183594 324.714844 -127.515625 323.09375 -144.09375 345.8125 L -144.09375 388.46875 C -129.597656 377.078125 -102.175781 368.207031 -92.640625 380.15625 C -86.527344 387.8125 -88.714844 410.277344 -75.785156 409.644531 C -70.433594 409.390625 -65.855469 405.910156 -61.464844 402.808594 C -57.09375 399.710938 -51.992188 396.71875 -46.703125 397.589844 C -40.808594 398.554688 -36.722656 404.011719 -34.332031 409.484375 C -3.980469 478.902344 43.402344 395.058594 71.28125 373.625 C 119.804688 336.335938 133.789062 408.867188 175.515625 401.070312 C 199.878906 396.515625 207.484375 369.097656 235.109375 381.421875 C 252.820312 389.332031 276.773438 410.054688 297.539062 402.035156 C 311.464844 396.640625 326.007812 380.25 342.671875 386.136719 C 356.230469 390.929688 358.972656 410.355469 369.539062 419.214844 C 374.039062 422.964844 380.246094 425.179688 385.839844 423.4375 C 399.730469 419.121094 398.859375 396.53125 411.851562 389.980469 C 418.140625 386.816406 426.359375 388.289062 431.890625 383.921875 C 438.449219 378.75 437.480469 368.75 440.15625 360.839844 C 444.023438 349.433594 457.09375 342.648438 468.785156 344.753906 C 483.40625 347.394531 490.265625 362.707031 497.757812 373.921875 C 520.03125 405.832031 550.761719 381.011719 572.082031 365.414062 C 588.714844 353.230469 610.796875 348.785156 630.871094 353.546875 C 637.128906 355.039062 642.808594 357.148438 647.960938 359.78125 L 647.960938 300.972656 C 623.300781 295.707031 595.117188 299.984375 576.945312 312.070312 Z M 576.945312 312.070312 " fill-opacity="1" fill-rule="nonzero"/></g><g clip-path="url(#id3)"><path fill="rgb(0%, 72.158813%, 94.509888%)" d="M 599.964844 469.648438 C 568.613281 468.144531 538.183594 454.316406 506.945312 457.230469 C 456.441406 461.941406 418.171875 508.546875 368.035156 516.234375 C 325.675781 522.722656 284.929688 500.289062 247.070312 480.230469 C 209.195312 460.1875 165.347656 441.347656 124.746094 455.046875 C 103.234375 462.292969 85.730469 477.859375 66.179688 489.375 C 9.375 522.878906 -70.085938 517.753906 -116.863281 471.277344 C -128.242188 459.980469 -137.421875 446.570312 -144.09375 432.003906 L -144.09375 635.234375 L 647.960938 635.234375 L 647.960938 461.207031 C 631.828125 467.332031 614.929688 470.367188 599.964844 469.648438 Z M 599.964844 469.648438 " fill-opacity="1" fill-rule="nonzero"/></g><g clip-path="url(#id4)"><path fill="rgb(30.589294%, 78.819275%, 96.078491%)" d="M 572.082031 365.414062 C 550.761719 381.011719 520.03125 405.832031 497.757812 373.921875 C 490.265625 362.707031 483.40625 347.394531 468.785156 344.753906 C 457.09375 342.648438 444.023438 349.433594 440.15625 360.839844 C 437.480469 368.75 438.449219 378.75 431.890625 383.921875 C 426.359375 388.289062 418.140625 386.816406 411.851562 389.980469 C 398.859375 396.53125 399.730469 419.121094 385.839844 423.4375 C 380.246094 425.179688 374.039062 422.964844 369.539062 419.214844 C 358.972656 410.355469 356.230469 390.929688 342.671875 386.136719 C 326.007812 380.25 311.464844 396.640625 297.539062 402.035156 C 276.773438 410.054688 252.820312 389.332031 235.109375 381.421875 C 207.484375 369.097656 199.878906 396.515625 175.515625 401.070312 C 133.789062 408.867188 119.804688 336.335938 71.28125 373.625 C 43.402344 395.058594 -3.980469 478.902344 -34.332031 409.484375 C -36.722656 404.011719 -40.808594 398.554688 -46.703125 397.589844 C -51.992188 396.71875 -57.09375 399.710938 -61.464844 402.808594 C -65.855469 405.910156 -70.433594 409.390625 -75.785156 409.644531 C -88.714844 410.277344 -86.527344 387.8125 -92.640625 380.15625 C -102.175781 368.207031 -129.597656 377.078125 -144.09375 388.46875 L -144.09375 432.003906 C -137.421875 446.570312 -128.242188 459.980469 -116.863281 471.277344 C -70.085938 517.753906 9.375 522.878906 66.179688 489.375 C 85.730469 477.859375 103.234375 462.292969 124.746094 455.046875 C 165.347656 441.347656 209.195312 460.1875 247.070312 480.230469 C 284.929688 500.289062 325.675781 522.722656 368.035156 516.234375 C 418.171875 508.546875 456.441406 461.941406 506.945312 457.230469 C 538.183594 454.316406 568.613281 468.144531 599.964844 469.648438 C 614.929688 470.367188 631.828125 467.332031 647.960938 461.207031 L 647.960938 359.78125 C 642.808594 357.148438 637.128906 355.039062 630.871094 353.546875 C 610.796875 348.785156 588.714844 353.230469 572.082031 365.414062 Z M 572.082031 365.414062 " fill-opacity="1" fill-rule="nonzero"/></g><path fill="rgb(8.628845%, 12.939453%, 23.919678%)" d="M 631.542969 277.464844 C 631.511719 277.433594 631.484375 277.402344 631.457031 277.371094 C 631.484375 277.402344 631.511719 277.433594 631.542969 277.464844 Z M 631.542969 277.464844 " fill-opacity="1" fill-rule="nonzero"/><path fill="rgb(8.628845%, 12.939453%, 23.919678%)" d="M 631.375 277.265625 C 631.351562 277.234375 631.328125 277.199219 631.308594 277.160156 C 631.328125 277.199219 631.351562 277.234375 631.375 277.265625 Z M 631.375 277.265625 " fill-opacity="1" fill-rule="nonzero"/><path fill="rgb(8.628845%, 12.939453%, 23.919678%)" d="M 631.972656 277.742188 C 631.933594 277.726562 631.894531 277.707031 631.859375 277.6875 C 631.898438 277.707031 631.933594 277.722656 631.972656 277.742188 Z M 631.972656 277.742188 " fill-opacity="1" fill-rule="nonzero"/><path fill="rgb(8.628845%, 12.939453%, 23.919678%)" d="M 632.230469 277.8125 C 632.183594 277.804688 632.140625 277.792969 632.097656 277.78125 C 632.140625 277.792969 632.183594 277.804688 632.230469 277.8125 Z M 632.230469 277.8125 " fill-opacity="1" fill-rule="nonzero"/><path fill="rgb(8.628845%, 12.939453%, 23.919678%)" d="M 631.742188 277.621094 C 631.707031 277.597656 631.675781 277.574219 631.640625 277.546875 C 631.675781 277.574219 631.707031 277.597656 631.742188 277.621094 Z M 631.742188 277.621094 " fill-opacity="1" fill-rule="nonzero"/><g clip-path="url(#id5)"><path fill="rgb(8.628845%, 12.939453%, 23.919678%)" d="M 631.242188 277.03125 C 631.152344 276.816406 631.109375 276.574219 631.140625 276.324219 C 631.238281 275.589844 631.914062 275.078125 632.644531 275.175781 L 633.429688 275.28125 L 629.085938 263.929688 C 633.058594 264.898438 637.984375 266.101562 643.355469 267.417969 L 643.210938 267.03125 C 642.949219 266.339844 643.300781 265.570312 643.992188 265.308594 C 644.683594 265.050781 645.453125 265.402344 645.714844 266.09375 L 646.496094 268.1875 C 651.859375 269.5 657.550781 270.894531 663.105469 272.257812 L 662.929688 271.734375 C 662.691406 271.035156 663.0625 270.277344 663.761719 270.039062 C 664.460938 269.800781 665.222656 270.175781 665.457031 270.875 L 666.1875 273.015625 C 671.125 274.230469 675.882812 275.402344 680.121094 276.453125 C 680.144531 275.886719 680.515625 275.375 681.089844 275.214844 C 681.800781 275.011719 682.539062 275.425781 682.738281 276.136719 L 683.03125 277.171875 C 689.988281 278.898438 695.121094 280.1875 696.617188 280.601562 C 696.859375 281.183594 697.246094 282.398438 697.675781 283.871094 L 700.578125 284.257812 C 699.082031 278.890625 698.605469 278.585938 698.207031 278.339844 C 697.96875 278.191406 697.414062 277.839844 627.242188 260.726562 C 626.757812 260.609375 626.253906 260.769531 625.921875 261.140625 C 625.59375 261.515625 625.5 262.039062 625.679688 262.503906 L 631.21875 276.980469 C 631.226562 277 631.234375 277.011719 631.242188 277.03125 Z M 631.242188 277.03125 " fill-opacity="1" fill-rule="nonzero"/></g><path fill="rgb(8.628845%, 12.939453%, 23.919678%)" d="M 646.96875 277.089844 L 649.972656 277.492188 L 646.496094 268.1875 L 645.710938 266.09375 C 645.453125 265.402344 644.683594 265.050781 643.992188 265.308594 C 643.300781 265.570312 642.949219 266.339844 643.210938 267.03125 L 643.351562 267.417969 Z M 646.96875 277.089844 " fill-opacity="1" fill-rule="nonzero"/><path fill="rgb(8.628845%, 12.939453%, 23.919678%)" d="M 665.589844 279.578125 L 668.546875 279.976562 L 666.1875 273.015625 L 665.457031 270.875 C 665.222656 270.175781 664.460938 269.796875 663.761719 270.039062 C 663.0625 270.277344 662.691406 271.035156 662.925781 271.734375 L 663.105469 272.257812 Z M 665.589844 279.578125 " fill-opacity="1" fill-rule="nonzero"/><path fill="rgb(8.628845%, 12.939453%, 23.919678%)" d="M 680.164062 276.867188 L 681.53125 281.710938 L 684.417969 282.097656 L 683.03125 277.171875 L 682.738281 276.136719 C 682.535156 275.425781 681.800781 275.011719 681.085938 275.214844 C 680.515625 275.375 680.140625 275.886719 680.121094 276.453125 C 680.117188 276.589844 680.125 276.726562 680.164062 276.867188 Z M 680.164062 276.867188 " fill-opacity="1" fill-rule="nonzero"/><path fill="rgb(8.628845%, 12.939453%, 23.919678%)" d="M 772.597656 294.289062 L 775.65625 294.746094 L 774.246094 286.90625 C 773.851562 286.902344 773.242188 283.097656 772.425781 276.757812 L 755.828125 184.417969 C 755.238281 189.304688 754.648438 195.492188 754.328125 202.519531 L 770.015625 283.339844 C 770.609375 284.335938 771.214844 285.320312 771.851562 286.289062 C 772.253906 286.90625 772.082031 287.738281 771.464844 288.144531 C 771.3125 288.242188 771.152344 288.292969 770.984375 288.324219 L 772.144531 294.304688 C 772.289062 294.277344 772.441406 294.265625 772.597656 294.289062 Z M 772.597656 294.289062 " fill-opacity="1" fill-rule="nonzero"/><path fill="rgb(97.648621%, 70.588684%, 34.118652%)" d="M 647.714844 294.980469 C 646.433594 296.332031 645.140625 297.671875 643.835938 299 C 643.773438 298.886719 643.710938 298.773438 643.648438 298.65625 C 645.863281 302.726562 648.089844 306.664062 650.253906 310.398438 C 651.917969 308.578125 653.574219 306.753906 655.230469 304.925781 Z M 647.714844 294.980469 " fill-opacity="1" fill-rule="nonzero"/><path fill="rgb(97.648621%, 70.588684%, 34.118652%)" d="M 643.394531 289.269531 C 642.949219 288.679688 643.066406 287.839844 643.652344 287.394531 C 644.242188 286.945312 645.082031 287.0625 645.527344 287.652344 L 648.339844 291.375 C 651.429688 288.042969 654.445312 284.644531 657.386719 281.183594 L 644.140625 279.410156 L 637.722656 287.378906 C 637.664062 287.265625 637.605469 287.152344 637.550781 287.039062 C 639.273438 290.460938 641.046875 293.847656 642.835938 297.15625 C 644.0625 295.898438 645.28125 294.636719 646.488281 293.355469 Z M 643.394531 289.269531 " fill-opacity="1" fill-rule="nonzero"/><path fill="rgb(97.648621%, 70.588684%, 34.118652%)" d="M 664.832031 317.628906 C 662.707031 319.78125 660.570312 321.914062 658.417969 324.039062 C 661.460938 328.972656 664.089844 333.074219 665.996094 335.996094 C 668.382812 333.546875 670.765625 331.085938 673.136719 328.613281 Z M 664.832031 317.628906 " fill-opacity="1" fill-rule="nonzero"/><path fill="rgb(97.648621%, 70.588684%, 34.118652%)" d="M 643.320312 298.046875 C 643.167969 297.773438 643.019531 297.5 642.871094 297.222656 C 643.019531 297.5 643.167969 297.773438 643.320312 298.046875 Z M 643.320312 298.046875 " fill-opacity="1" fill-rule="nonzero"/><g clip-path="url(#id6)"><path fill="rgb(97.648621%, 70.588684%, 34.118652%)" d="M 714.117188 288.753906 C 714.054688 288.753906 713.996094 288.75 713.9375 288.742188 L 712.457031 288.542969 C 700.71875 302.039062 688.605469 315.332031 676.238281 328.28125 L 683.015625 337.242188 C 697.625 321.753906 711.667969 305.574219 724.960938 288.925781 C 725.726562 289.035156 726.496094 289.140625 727.265625 289.25 C 713.609375 306.410156 699.15625 323.078125 684.105469 339.011719 C 684.148438 339.460938 683.96875 339.921875 683.585938 340.210938 C 683.34375 340.394531 683.0625 340.484375 682.78125 340.484375 C 682.757812 340.484375 682.738281 340.476562 682.71875 340.476562 C 682.585938 340.617188 682.449219 340.757812 682.316406 340.898438 L 679.542969 340.898438 C 680.078125 340.335938 680.617188 339.777344 681.152344 339.210938 L 674.363281 330.230469 C 671.957031 332.738281 669.542969 335.234375 667.121094 337.714844 C 668.46875 339.765625 669.242188 340.902344 669.242188 340.902344 L 826.460938 340.902344 L 840.84375 306.054688 C 819.3125 302.671875 797.800781 299.429688 777.210938 296.410156 C 777.621094 296.472656 778.035156 296.53125 778.449219 296.59375 C 767.277344 311.730469 755.476562 326.570312 743.21875 340.898438 L 740.574219 340.898438 C 752.660156 326.835938 764.308594 312.269531 775.351562 297.40625 L 772.203125 296.9375 C 771.503906 296.832031 771.019531 296.207031 771.074219 295.511719 C 751.296875 292.628906 732.476562 289.964844 715.4375 287.597656 C 715.34375 288.269531 714.773438 288.753906 714.117188 288.753906 Z M 833.167969 323.507812 L 824.960938 339.867188 C 824.726562 340.335938 824.253906 340.605469 823.765625 340.605469 C 823.566406 340.605469 823.359375 340.558594 823.167969 340.464844 C 822.507812 340.132812 822.242188 339.328125 822.574219 338.667969 L 830.78125 322.304688 C 831.109375 321.644531 831.914062 321.378906 832.574219 321.710938 C 833.234375 322.042969 833.5 322.847656 833.167969 323.507812 Z M 838.054688 305.621094 L 815.21875 340.898438 L 812.828125 340.898438 L 835.886719 305.28125 C 836.609375 305.394531 837.332031 305.507812 838.054688 305.621094 Z M 829.921875 304.351562 C 821.605469 316.453125 813.332031 328.664062 805.152344 340.898438 L 802.742188 340.898438 C 810.988281 328.550781 819.332031 316.230469 827.722656 304.011719 C 828.457031 304.125 829.191406 304.238281 829.921875 304.351562 Z M 817.9375 302.507812 C 809.652344 315.582031 800.859375 328.421875 791.652344 340.898438 L 789.171875 340.898438 C 798.492188 328.324219 807.386719 315.371094 815.769531 302.175781 C 816.492188 302.285156 817.214844 302.398438 817.9375 302.507812 Z M 805.0625 300.554688 C 795.933594 314.007812 786.65625 327.507812 777.335938 340.898438 L 774.890625 340.898438 C 784.289062 327.398438 793.648438 313.789062 802.863281 300.222656 C 803.597656 300.332031 804.332031 300.441406 805.0625 300.554688 Z M 790.460938 298.367188 C 791.195312 298.476562 791.933594 298.585938 792.675781 298.695312 C 782.628906 313.070312 772.027344 327.203125 761 340.898438 L 758.417969 340.898438 C 769.570312 327.105469 780.300781 312.863281 790.460938 298.367188 Z M 761.84375 294.171875 C 748.855469 309.972656 735.457031 325.628906 721.847656 340.898438 L 719.160156 340.898438 C 732.886719 325.527344 746.414062 309.757812 759.519531 293.835938 C 760.292969 293.949219 761.066406 294.0625 761.84375 294.171875 Z M 743.609375 291.558594 C 729.9375 308.75 715.257812 325.28125 699.804688 340.898438 L 696.984375 340.898438 C 712.621094 325.195312 727.476562 308.550781 741.308594 291.230469 C 742.074219 291.339844 742.839844 291.449219 743.609375 291.558594 Z M 743.609375 291.558594 " fill-opacity="1" fill-rule="nonzero"/></g><path fill="rgb(97.648621%, 70.588684%, 34.118652%)" d="M 633.132812 277.941406 C 633.238281 278.167969 633.34375 278.394531 633.449219 278.621094 C 634.511719 280.886719 635.613281 283.152344 636.734375 285.410156 L 641.816406 279.101562 Z M 633.132812 277.941406 " fill-opacity="1" fill-rule="nonzero"/><path fill="rgb(97.648621%, 70.588684%, 34.118652%)" d="M 665.507812 314.085938 C 674.519531 304.886719 683.300781 295.433594 691.785156 285.78125 L 676.707031 283.765625 C 670.640625 290.726562 664.492188 297.660156 658.285156 304.53125 Z M 665.507812 314.085938 " fill-opacity="1" fill-rule="nonzero"/><path fill="rgb(97.648621%, 70.588684%, 34.118652%)" d="M 675.015625 326.660156 C 686.972656 314.128906 698.695312 301.273438 710.070312 288.226562 L 694.183594 286.101562 C 685.335938 296.203125 676.15625 306.089844 666.730469 315.703125 Z M 675.015625 326.660156 " fill-opacity="1" fill-rule="nonzero"/><path fill="rgb(97.648621%, 70.588684%, 34.118652%)" d="M 637.367188 286.675781 C 637.179688 286.304688 636.996094 285.933594 636.808594 285.5625 C 636.996094 285.933594 637.179688 286.304688 637.367188 286.675781 Z M 637.367188 286.675781 " fill-opacity="1" fill-rule="nonzero"/><path fill="rgb(97.648621%, 70.588684%, 34.118652%)" d="M 657.054688 302.902344 C 662.867188 296.460938 668.628906 289.96875 674.324219 283.449219 L 659.753906 281.5 C 656.457031 285.417969 653.054688 289.246094 649.566406 293 Z M 657.054688 302.902344 " fill-opacity="1" fill-rule="nonzero"/><path fill="rgb(97.648621%, 70.588684%, 34.118652%)" d="M 663.613281 316.011719 L 656.460938 306.554688 C 654.75 308.445312 653.03125 310.332031 651.3125 312.214844 C 653.414062 315.808594 655.445312 319.191406 657.339844 322.285156 C 659.441406 320.207031 661.53125 318.117188 663.613281 316.011719 Z M 663.613281 316.011719 " fill-opacity="1" fill-rule="nonzero"/><g clip-path="url(#id7)"><path fill="rgb(98.81897%, 78.819275%, 51.368713%)" d="M 815.21875 340.898438 L 838.054688 305.621094 C 837.332031 305.507812 836.609375 305.394531 835.886719 305.28125 L 812.828125 340.898438 Z M 815.21875 340.898438 " fill-opacity="1" fill-rule="nonzero"/></g><g clip-path="url(#id8)"><path fill="rgb(98.81897%, 78.819275%, 51.368713%)" d="M 805.152344 340.898438 C 813.332031 328.664062 821.605469 316.457031 829.921875 304.351562 C 829.191406 304.238281 828.457031 304.125 827.722656 304.011719 C 819.335938 316.230469 810.988281 328.550781 802.742188 340.898438 Z M 805.152344 340.898438 " fill-opacity="1" fill-rule="nonzero"/></g><g clip-path="url(#id9)"><path fill="rgb(98.81897%, 78.819275%, 51.368713%)" d="M 791.652344 340.898438 C 800.859375 328.421875 809.652344 315.582031 817.9375 302.507812 C 817.214844 302.398438 816.492188 302.285156 815.769531 302.175781 C 807.386719 315.371094 798.492188 328.324219 789.171875 340.902344 L 791.652344 340.902344 Z M 791.652344 340.898438 " fill-opacity="1" fill-rule="nonzero"/></g><g clip-path="url(#id10)"><path fill="rgb(98.81897%, 78.819275%, 51.368713%)" d="M 777.335938 340.898438 C 786.65625 327.507812 795.933594 314.007812 805.066406 300.554688 C 804.332031 300.441406 803.597656 300.332031 802.867188 300.222656 C 793.652344 313.789062 784.292969 327.398438 774.890625 340.898438 Z M 777.335938 340.898438 " fill-opacity="1" fill-rule="nonzero"/></g><g clip-path="url(#id11)"><path fill="rgb(98.81897%, 78.819275%, 51.368713%)" d="M 792.675781 298.695312 C 791.933594 298.585938 791.195312 298.476562 790.460938 298.367188 C 780.300781 312.863281 769.570312 327.105469 758.417969 340.898438 L 761.003906 340.898438 C 772.027344 327.203125 782.628906 313.070312 792.675781 298.695312 Z M 792.675781 298.695312 " fill-opacity="1" fill-rule="nonzero"/></g><g clip-path="url(#id12)"><path fill="rgb(98.81897%, 78.819275%, 51.368713%)" d="M 775.90625 297.476562 C 775.84375 297.476562 775.777344 297.46875 775.710938 297.460938 L 775.351562 297.40625 C 764.308594 312.269531 752.660156 326.835938 740.574219 340.898438 L 743.21875 340.898438 C 755.476562 326.570312 767.277344 311.730469 778.449219 296.59375 C 778.035156 296.53125 777.621094 296.472656 777.210938 296.410156 C 777.078125 297.035156 776.53125 297.476562 775.90625 297.476562 Z M 775.90625 297.476562 " fill-opacity="1" fill-rule="nonzero"/></g><g clip-path="url(#id13)"><path fill="rgb(98.81897%, 78.819275%, 51.368713%)" d="M 721.847656 340.898438 C 735.457031 325.628906 748.855469 309.972656 761.84375 294.171875 C 761.066406 294.0625 760.292969 293.949219 759.519531 293.835938 C 746.414062 309.757812 732.886719 325.527344 719.160156 340.898438 Z M 721.847656 340.898438 " fill-opacity="1" fill-rule="nonzero"/></g><g clip-path="url(#id14)"><path fill="rgb(98.81897%, 78.819275%, 51.368713%)" d="M 696.984375 340.898438 L 699.804688 340.898438 C 715.257812 325.28125 729.9375 308.746094 743.609375 291.558594 C 742.839844 291.449219 742.074219 291.339844 741.308594 291.230469 C 727.476562 308.550781 712.621094 325.195312 696.984375 340.898438 Z M 696.984375 340.898438 " fill-opacity="1" fill-rule="nonzero"/></g><g clip-path="url(#id15)"><path fill="rgb(98.81897%, 78.819275%, 51.368713%)" d="M 681.710938 339.953125 L 681.152344 339.210938 C 680.617188 339.777344 680.078125 340.339844 679.542969 340.898438 L 682.316406 340.898438 C 682.449219 340.757812 682.582031 340.617188 682.71875 340.476562 C 682.335938 340.460938 681.960938 340.285156 681.710938 339.953125 Z M 681.710938 339.953125 " fill-opacity="1" fill-rule="nonzero"/></g><path fill="rgb(98.81897%, 78.819275%, 51.368713%)" d="M 684.105469 339.011719 C 699.15625 323.078125 713.609375 306.410156 727.265625 289.25 C 726.496094 289.140625 725.726562 289.035156 724.957031 288.925781 C 711.667969 305.574219 697.625 321.753906 683.015625 337.242188 L 683.84375 338.339844 C 683.996094 338.542969 684.082031 338.777344 684.105469 339.011719 Z M 684.105469 339.011719 " fill-opacity="1" fill-rule="nonzero"/><path fill="rgb(98.81897%, 78.819275%, 51.368713%)" d="M 676.238281 328.28125 C 688.605469 315.332031 700.71875 302.039062 712.457031 288.546875 L 710.070312 288.226562 C 698.695312 301.273438 686.972656 314.128906 675.015625 326.660156 Z M 676.238281 328.28125 " fill-opacity="1" fill-rule="nonzero"/><path fill="rgb(98.81897%, 78.819275%, 51.368713%)" d="M 673.136719 328.613281 C 670.765625 331.085938 668.382812 333.546875 665.996094 335.996094 C 665.992188 335.996094 665.992188 335.996094 665.992188 335.996094 C 666.402344 336.625 666.777344 337.199219 667.117188 337.714844 C 669.542969 335.234375 671.957031 332.738281 674.363281 330.230469 Z M 673.136719 328.613281 " fill-opacity="1" fill-rule="nonzero"/><path fill="rgb(98.81897%, 78.819275%, 51.368713%)" d="M 666.730469 315.703125 C 676.15625 306.089844 685.335938 296.203125 694.183594 286.101562 L 691.785156 285.78125 C 683.300781 295.433594 674.519531 304.886719 665.507812 314.085938 Z M 666.730469 315.703125 " fill-opacity="1" fill-rule="nonzero"/><path fill="rgb(98.81897%, 78.819275%, 51.368713%)" d="M 664.832031 317.628906 L 663.613281 316.011719 C 661.53125 318.117188 659.441406 320.207031 657.339844 322.285156 C 657.703125 322.878906 658.0625 323.464844 658.417969 324.039062 C 660.570312 321.914062 662.707031 319.78125 664.832031 317.628906 Z M 664.832031 317.628906 " fill-opacity="1" fill-rule="nonzero"/><path fill="rgb(98.81897%, 78.819275%, 51.368713%)" d="M 658.285156 304.53125 C 664.492188 297.660156 670.640625 290.726562 676.707031 283.765625 L 674.324219 283.445312 C 668.628906 289.96875 662.867188 296.460938 657.054688 302.902344 Z M 658.285156 304.53125 " fill-opacity="1" fill-rule="nonzero"/><path fill="rgb(98.81897%, 78.819275%, 51.368713%)" d="M 655.230469 304.925781 C 653.574219 306.753906 651.917969 308.578125 650.253906 310.398438 C 650.609375 311.007812 650.960938 311.613281 651.3125 312.214844 C 651.3125 312.214844 651.3125 312.214844 651.3125 312.210938 C 653.03125 310.332031 654.75 308.445312 656.460938 306.550781 Z M 655.230469 304.925781 " fill-opacity="1" fill-rule="nonzero"/><path fill="rgb(98.81897%, 78.819275%, 51.368713%)" d="M 649.566406 293 C 653.054688 289.246094 656.457031 285.414062 659.753906 281.5 L 657.386719 281.183594 C 654.445312 284.644531 651.429688 288.042969 648.339844 291.375 Z M 649.566406 293 " fill-opacity="1" fill-rule="nonzero"/><path fill="rgb(98.81897%, 78.819275%, 51.368713%)" d="M 647.714844 294.980469 L 646.484375 293.355469 C 645.28125 294.636719 644.0625 295.898438 642.835938 297.15625 C 642.847656 297.179688 642.859375 297.199219 642.871094 297.222656 C 643.019531 297.5 643.167969 297.773438 643.316406 298.046875 C 643.429688 298.25 643.539062 298.453125 643.648438 298.65625 C 643.710938 298.773438 643.773438 298.886719 643.835938 299 C 645.140625 297.671875 646.433594 296.332031 647.714844 294.980469 Z M 647.714844 294.980469 " fill-opacity="1" fill-rule="nonzero"/><path fill="rgb(98.81897%, 78.819275%, 51.368713%)" d="M 644.140625 279.410156 L 641.816406 279.101562 L 636.734375 285.410156 C 636.757812 285.460938 636.785156 285.511719 636.808594 285.5625 C 636.996094 285.933594 637.183594 286.304688 637.367188 286.675781 C 637.429688 286.796875 637.488281 286.917969 637.550781 287.039062 C 637.609375 287.152344 637.664062 287.265625 637.722656 287.378906 Z M 644.140625 279.410156 " fill-opacity="1" fill-rule="nonzero"/><path fill="rgb(76.469421%, 82.348633%, 88.238525%)" d="M 772.421875 276.757812 C 773.242188 283.097656 773.847656 286.902344 774.246094 286.90625 C 779.976562 286.921875 785.375 286.597656 790.441406 286.046875 C 790.4375 286.023438 790.429688 286 790.429688 285.976562 C 790.390625 285.238281 790.953125 284.609375 791.691406 284.566406 C 791.957031 284.554688 818.273438 282.984375 836.863281 270.507812 C 794.152344 242.289062 765.683594 189.691406 757.503906 173.214844 C 757.417969 173.675781 757.265625 174.5 757.078125 175.648438 C 764.628906 206.460938 769.699219 255.660156 772.421875 276.757812 Z M 772.421875 276.757812 " fill-opacity="1" fill-rule="nonzero"/><path fill="rgb(76.469421%, 82.348633%, 88.238525%)" d="M 756.515625 171.195312 C 756.5 171.167969 756.488281 171.144531 756.476562 171.113281 C 756.472656 171.140625 756.46875 171.167969 756.464844 171.191406 C 756.480469 171.195312 756.5 171.195312 756.515625 171.195312 Z M 756.515625 171.195312 " fill-opacity="1" fill-rule="nonzero"/><path fill="rgb(92.158508%, 92.939758%, 94.898987%)" d="M 754.972656 172.242188 C 755.113281 171.546875 755.769531 171.097656 756.464844 171.191406 C 756.46875 171.167969 756.472656 171.140625 756.476562 171.113281 C 757.96875 160.660156 759.554688 152.851562 760.28125 149.476562 C 754.339844 153.355469 724.445312 174.574219 687.757812 230.207031 C 687.882812 230.261719 688.003906 230.328125 688.109375 230.421875 L 691.953125 233.734375 C 692.511719 234.21875 692.574219 235.0625 692.089844 235.621094 C 691.828125 235.929688 691.453125 236.085938 691.078125 236.085938 C 690.769531 236.085938 690.460938 235.980469 690.207031 235.761719 L 686.367188 232.449219 C 686.347656 232.433594 686.335938 232.414062 686.320312 232.398438 C 684.871094 234.617188 683.417969 236.886719 681.949219 239.214844 C 681.96875 239.222656 681.988281 239.226562 682.007812 239.238281 L 691.746094 244.863281 C 692.386719 245.230469 692.605469 246.050781 692.238281 246.691406 C 691.988281 247.117188 691.539062 247.359375 691.078125 247.359375 C 690.851562 247.359375 690.621094 247.300781 690.410156 247.179688 L 680.671875 241.554688 C 680.625 241.527344 680.585938 241.496094 680.542969 241.460938 C 679.132812 243.722656 677.714844 246.035156 676.292969 248.398438 C 676.429688 248.414062 676.570312 248.441406 676.703125 248.5 L 691.617188 255.042969 C 692.292969 255.339844 692.601562 256.128906 692.304688 256.804688 C 692.085938 257.308594 691.59375 257.605469 691.078125 257.605469 C 690.898438 257.605469 690.71875 257.570312 690.542969 257.492188 L 675.628906 250.949219 C 675.386719 250.84375 675.191406 250.667969 675.054688 250.460938 C 672.957031 253.972656 670.847656 257.585938 668.722656 261.320312 C 669.1875 261.554688 669.667969 261.789062 670.167969 262.027344 C 695.003906 273.695312 757.648438 284.785156 768.960938 286.726562 C 754.4375 263.828125 751.351562 234.210938 751.347656 213.246094 C 751.339844 190.257812 754.933594 172.421875 754.972656 172.242188 Z M 754.972656 172.242188 " fill-opacity="1" fill-rule="nonzero"/><path fill="rgb(8.628845%, 12.939453%, 23.919678%)" d="M 771.851562 286.289062 C 771.214844 285.324219 770.609375 284.335938 770.015625 283.34375 C 755.195312 258.476562 753.261719 225.871094 754.328125 202.519531 C 754.648438 195.492188 755.238281 189.304688 755.828125 184.417969 C 756.285156 180.648438 756.742188 177.65625 757.078125 175.648438 C 757.269531 174.5 757.417969 173.675781 757.503906 173.214844 C 757.554688 172.964844 757.582031 172.808594 757.589844 172.78125 C 757.738281 172.054688 757.269531 171.351562 756.546875 171.203125 C 756.539062 171.199219 756.527344 171.199219 756.515625 171.199219 C 756.5 171.195312 756.480469 171.195312 756.464844 171.191406 C 755.769531 171.097656 755.113281 171.546875 754.972656 172.242188 C 754.933594 172.421875 751.339844 190.257812 751.34375 213.246094 C 751.351562 234.210938 754.4375 263.828125 768.960938 286.726562 C 769.179688 287.070312 769.390625 287.417969 769.613281 287.757812 C 769.871094 288.148438 770.296875 288.363281 770.734375 288.363281 C 770.816406 288.363281 770.902344 288.34375 770.984375 288.328125 C 771.152344 288.292969 771.3125 288.242188 771.464844 288.144531 C 772.082031 287.738281 772.253906 286.910156 771.851562 286.289062 Z M 771.851562 286.289062 " fill-opacity="1" fill-rule="nonzero"/><path fill="rgb(8.628845%, 12.939453%, 23.919678%)" d="M 675.628906 250.949219 L 690.542969 257.496094 C 690.71875 257.570312 690.898438 257.609375 691.078125 257.609375 C 691.59375 257.609375 692.082031 257.308594 692.304688 256.804688 C 692.601562 256.128906 692.292969 255.339844 691.617188 255.042969 L 676.703125 248.5 C 676.566406 248.441406 676.429688 248.414062 676.289062 248.398438 C 675.878906 249.082031 675.464844 249.769531 675.054688 250.460938 C 675.191406 250.671875 675.386719 250.84375 675.628906 250.949219 Z M 675.628906 250.949219 " fill-opacity="1" fill-rule="nonzero"/><path fill="rgb(8.628845%, 12.939453%, 23.919678%)" d="M 680.671875 241.558594 L 690.410156 247.179688 C 690.621094 247.300781 690.851562 247.359375 691.078125 247.359375 C 691.539062 247.359375 691.988281 247.121094 692.238281 246.691406 C 692.605469 246.050781 692.386719 245.230469 691.746094 244.863281 L 682.007812 239.238281 C 681.988281 239.230469 681.96875 239.222656 681.949219 239.214844 C 681.480469 239.957031 681.011719 240.707031 680.542969 241.464844 C 680.585938 241.496094 680.625 241.53125 680.671875 241.558594 Z M 680.671875 241.558594 " fill-opacity="1" fill-rule="nonzero"/><path fill="rgb(8.628845%, 12.939453%, 23.919678%)" d="M 686.367188 232.449219 L 690.207031 235.761719 C 690.460938 235.980469 690.769531 236.085938 691.078125 236.085938 C 691.453125 236.085938 691.828125 235.929688 692.09375 235.621094 C 692.574219 235.0625 692.511719 234.21875 691.953125 233.734375 L 688.109375 230.421875 C 688.003906 230.328125 687.882812 230.261719 687.757812 230.207031 C 687.277344 230.933594 686.800781 231.660156 686.320312 232.398438 C 686.335938 232.414062 686.347656 232.433594 686.367188 232.449219 Z M 686.367188 232.449219 " fill-opacity="1" fill-rule="nonzero"/><g clip-path="url(#id16)"><path fill="rgb(8.628845%, 12.939453%, 23.919678%)" d="M 676.292969 248.398438 C 677.714844 246.039062 679.132812 243.722656 680.542969 241.460938 C 681.011719 240.707031 681.480469 239.957031 681.949219 239.214844 C 683.417969 236.886719 684.871094 234.617188 686.320312 232.398438 C 686.800781 231.660156 687.277344 230.933594 687.757812 230.207031 C 724.445312 174.574219 754.339844 153.355469 760.28125 149.476562 C 760.953125 149.042969 761.324219 148.820312 761.359375 148.796875 C 762 148.425781 762.21875 147.609375 761.847656 146.96875 C 761.480469 146.332031 760.660156 146.109375 760.023438 146.480469 C 759.578125 146.738281 748.914062 152.984375 731.957031 170.160156 C 716.367188 185.949219 692.335938 214.359375 666.371094 260.046875 C 666.007812 260.6875 666.230469 261.503906 666.875 261.871094 C 667.082031 261.988281 667.308594 262.046875 667.53125 262.046875 C 667.996094 262.046875 668.449219 261.804688 668.695312 261.371094 C 668.703125 261.355469 668.714844 261.339844 668.722656 261.324219 C 670.84375 257.585938 672.957031 253.972656 675.050781 250.460938 C 675.464844 249.769531 675.878906 249.082031 676.292969 248.398438 Z M 676.292969 248.398438 " fill-opacity="1" fill-rule="nonzero"/></g><path fill="rgb(8.628845%, 12.939453%, 23.919678%)" d="M 772.203125 296.9375 L 775.351562 297.40625 L 775.707031 297.460938 C 775.777344 297.46875 775.839844 297.476562 775.90625 297.476562 C 776.53125 297.476562 777.078125 297.035156 777.210938 296.410156 C 777.214844 296.382812 777.222656 296.359375 777.226562 296.332031 C 777.335938 295.601562 776.832031 294.921875 776.101562 294.8125 L 775.65625 294.746094 L 772.597656 294.289062 C 772.441406 294.265625 772.292969 294.277344 772.144531 294.304688 C 771.605469 294.410156 771.164062 294.839844 771.078125 295.417969 C 771.074219 295.449219 771.074219 295.480469 771.074219 295.511719 C 771.019531 296.207031 771.503906 296.832031 772.203125 296.9375 Z M 772.203125 296.9375 " fill-opacity="1" fill-rule="nonzero"/><g clip-path="url(#id17)"><path fill="rgb(8.628845%, 12.939453%, 23.919678%)" d="M 832.574219 321.710938 C 831.914062 321.378906 831.109375 321.644531 830.78125 322.304688 L 822.574219 338.667969 C 822.242188 339.328125 822.507812 340.132812 823.167969 340.464844 C 823.359375 340.558594 823.566406 340.605469 823.765625 340.605469 C 824.253906 340.605469 824.726562 340.335938 824.960938 339.867188 L 833.167969 323.507812 C 833.5 322.847656 833.234375 322.042969 832.574219 321.710938 Z M 832.574219 321.710938 " fill-opacity="1" fill-rule="nonzero"/></g><path fill="rgb(8.628845%, 12.939453%, 23.919678%)" d="M 684.421875 282.097656 L 681.53125 281.710938 L 668.546875 279.976562 L 665.589844 279.578125 L 649.972656 277.492188 L 646.96875 277.089844 L 633.429688 275.28125 L 632.640625 275.175781 C 631.914062 275.078125 631.238281 275.589844 631.140625 276.324219 C 631.109375 276.574219 631.148438 276.816406 631.242188 277.03125 C 631.261719 277.074219 631.285156 277.117188 631.308594 277.160156 C 631.328125 277.195312 631.351562 277.230469 631.375 277.265625 C 631.398438 277.300781 631.425781 277.335938 631.453125 277.371094 C 631.484375 277.402344 631.511719 277.433594 631.542969 277.464844 C 631.574219 277.492188 631.605469 277.519531 631.640625 277.546875 C 631.671875 277.574219 631.707031 277.597656 631.742188 277.621094 C 631.777344 277.644531 631.816406 277.667969 631.859375 277.6875 C 631.894531 277.707031 631.933594 277.722656 631.96875 277.738281 C 632.011719 277.753906 632.050781 277.769531 632.09375 277.78125 C 632.136719 277.792969 632.183594 277.804688 632.230469 277.8125 C 632.25 277.816406 632.265625 277.824219 632.289062 277.828125 L 633.132812 277.941406 L 641.816406 279.101562 L 644.140625 279.410156 L 657.386719 281.183594 L 659.753906 281.5 L 674.324219 283.445312 L 676.707031 283.765625 L 691.785156 285.78125 L 694.183594 286.101562 L 710.066406 288.226562 L 712.453125 288.542969 L 713.9375 288.742188 C 713.996094 288.75 714.054688 288.753906 714.113281 288.753906 C 714.773438 288.753906 715.34375 288.265625 715.4375 287.597656 C 715.4375 287.59375 715.4375 287.59375 715.4375 287.59375 C 715.535156 286.859375 715.019531 286.1875 714.289062 286.089844 L 700.578125 284.257812 L 697.671875 283.867188 Z M 684.421875 282.097656 " fill-opacity="1" fill-rule="nonzero"/><path fill="rgb(8.628845%, 12.939453%, 23.919678%)" d="M 790.429688 285.976562 C 790.429688 286 790.4375 286.023438 790.441406 286.046875 C 790.511719 286.722656 791.082031 287.242188 791.761719 287.242188 C 791.785156 287.242188 791.8125 287.242188 791.835938 287.238281 C 792.960938 287.179688 819.585938 285.601562 838.828125 272.410156 C 839.4375 271.992188 839.59375 271.160156 839.175781 270.546875 C 838.757812 269.941406 837.925781 269.785156 837.316406 270.199219 C 837.167969 270.304688 837.015625 270.40625 836.863281 270.507812 C 818.273438 282.984375 791.957031 284.554688 791.691406 284.566406 C 790.953125 284.609375 790.390625 285.238281 790.429688 285.976562 Z M 790.429688 285.976562 " fill-opacity="1" fill-rule="nonzero"/><g clip-path="url(#id18)"><path fill="rgb(8.628845%, 12.939453%, 23.919678%)" d="M 666.730469 315.703125 L 665.507812 314.085938 L 658.285156 304.53125 L 657.054688 302.902344 L 649.566406 292.996094 L 648.339844 291.375 L 645.527344 287.652344 C 645.082031 287.0625 644.242188 286.945312 643.652344 287.394531 C 643.066406 287.839844 642.949219 288.679688 643.394531 289.269531 L 646.484375 293.355469 L 647.714844 294.980469 L 655.230469 304.925781 L 656.460938 306.554688 L 663.609375 316.011719 L 664.832031 317.628906 L 673.136719 328.613281 L 674.363281 330.230469 L 681.152344 339.210938 L 681.710938 339.953125 C 681.960938 340.285156 682.332031 340.460938 682.71875 340.476562 C 682.738281 340.476562 682.757812 340.484375 682.777344 340.484375 C 683.058594 340.484375 683.34375 340.394531 683.582031 340.214844 C 683.96875 339.921875 684.148438 339.460938 684.101562 339.011719 C 684.078125 338.777344 683.996094 338.542969 683.84375 338.339844 L 683.015625 337.242188 L 676.238281 328.28125 L 675.011719 326.660156 Z M 666.730469 315.703125 " fill-opacity="1" fill-rule="nonzero"/></g><path fill="rgb(30.589294%, 78.819275%, 96.078491%)" d="M 1394.65625 286.113281 C 1387.449219 290.910156 1381.40625 297.535156 1373.515625 301.097656 C 1347.484375 312.847656 1325.867188 272.210938 1305.613281 282.265625 C 1299.394531 285.351562 1295.171875 291.253906 1290.777344 296.628906 C 1286.382812 302.003906 1281.054688 307.339844 1274.199219 308.4375 C 1261.984375 310.394531 1251.652344 298.324219 1239.316406 297.40625 C 1222.949219 296.1875 1209.820312 314.632812 1193.492188 312.964844 C 1178.015625 311.386719 1170.664062 293.746094 1160.085938 282.339844 C 1124.019531 243.472656 1082.988281 285.414062 1050.597656 301.867188 C 1035.378906 309.597656 1016.902344 310.609375 1000.910156 304.652344 C 1000.363281 304.449219 999.820312 304.238281 999.28125 304.019531 C 974.550781 293.96875 957.597656 292.960938 947.308594 307.078125 L 947.308594 486.929688 L 1438.714844 486.929688 L 1438.714844 279.214844 C 1423.414062 275.941406 1405.929688 278.601562 1394.65625 286.113281 Z M 1394.65625 286.113281 " fill-opacity="1" fill-rule="nonzero"/><path fill="rgb(69.40918%, 89.019775%, 98.039246%)" d="M 1394.65625 286.113281 C 1387.449219 290.910156 1381.40625 297.535156 1373.515625 301.097656 C 1347.484375 312.847656 1325.867188 272.210938 1305.613281 282.265625 C 1299.394531 285.351562 1295.171875 291.253906 1290.777344 296.628906 C 1286.382812 302.003906 1281.054688 307.339844 1274.199219 308.4375 C 1261.984375 310.394531 1251.652344 298.324219 1239.316406 297.40625 C 1222.949219 296.1875 1209.820312 314.632812 1193.492188 312.964844 C 1178.015625 311.386719 1170.664062 293.746094 1160.085938 282.339844 C 1124.019531 243.472656 1082.988281 285.414062 1050.597656 301.867188 C 1035.378906 309.597656 1016.902344 310.609375 1000.910156 304.652344 C 1000.363281 304.449219 999.820312 304.238281 999.28125 304.019531 C 974.550781 293.96875 957.597656 292.960938 947.308594 307.078125 L 947.308594 333.585938 C 956.304688 326.507812 973.316406 320.996094 979.230469 328.421875 C 983.027344 333.179688 981.667969 347.136719 989.6875 346.746094 C 993.011719 346.585938 995.851562 344.425781 998.574219 342.496094 C 1001.285156 340.570312 1004.449219 338.714844 1007.734375 339.253906 C 1011.390625 339.851562 1013.925781 343.246094 1015.410156 346.644531 C 1034.238281 389.78125 1063.636719 337.679688 1080.933594 324.359375 C 1111.035156 301.191406 1119.714844 346.261719 1145.601562 341.417969 C 1160.71875 338.585938 1165.433594 321.550781 1182.574219 329.207031 C 1193.5625 334.121094 1208.421875 347 1221.308594 342.015625 C 1229.945312 338.664062 1238.96875 328.480469 1249.308594 332.136719 C 1257.722656 335.113281 1259.421875 347.1875 1265.976562 352.691406 C 1268.769531 355.023438 1272.621094 356.398438 1276.089844 355.316406 C 1284.710938 352.632812 1284.167969 338.59375 1292.226562 334.523438 C 1296.128906 332.558594 1301.230469 333.472656 1304.660156 330.761719 C 1308.730469 327.546875 1308.128906 321.332031 1309.789062 316.417969 C 1312.1875 309.328125 1320.296875 305.113281 1327.550781 306.421875 C 1336.621094 308.0625 1340.878906 317.578125 1345.527344 324.546875 C 1359.34375 344.375 1378.410156 328.953125 1391.640625 319.257812 C 1401.957031 311.6875 1415.660156 308.925781 1428.109375 311.886719 C 1431.996094 312.8125 1435.519531 314.121094 1438.714844 315.757812 L 1438.714844 279.214844 C 1423.414062 275.941406 1405.929688 278.601562 1394.65625 286.113281 Z M 1394.65625 286.113281 " fill-opacity="1" fill-rule="nonzero"/><path fill="rgb(0%, 72.158813%, 94.509888%)" d="M 1408.9375 384.03125 C 1389.488281 383.097656 1370.605469 374.503906 1351.226562 376.316406 C 1319.894531 379.242188 1296.148438 408.203125 1265.042969 412.980469 C 1238.761719 417.011719 1213.484375 403.074219 1189.996094 390.609375 C 1166.496094 378.152344 1139.292969 366.445312 1114.101562 374.957031 C 1100.757812 379.460938 1089.898438 389.132812 1077.769531 396.289062 C 1042.523438 417.109375 993.226562 413.925781 964.203125 385.042969 C 957.144531 378.023438 951.449219 369.691406 947.308594 360.640625 L 947.308594 486.929688 L 1438.714844 486.929688 L 1438.714844 378.785156 C 1428.707031 382.59375 1418.222656 384.476562 1408.9375 384.03125 Z M 1408.9375 384.03125 " fill-opacity="1" fill-rule="nonzero"/><path fill="rgb(30.589294%, 78.819275%, 96.078491%)" d="M 1391.640625 319.257812 C 1378.410156 328.953125 1359.34375 344.375 1345.527344 324.546875 C 1340.878906 317.578125 1336.621094 308.0625 1327.550781 306.421875 C 1320.296875 305.113281 1312.1875 309.328125 1309.789062 316.417969 C 1308.128906 321.332031 1308.730469 327.546875 1304.660156 330.761719 C 1301.230469 333.472656 1296.128906 332.558594 1292.226562 334.523438 C 1284.167969 338.59375 1284.710938 352.632812 1276.089844 355.316406 C 1272.621094 356.398438 1268.769531 355.023438 1265.976562 352.691406 C 1259.421875 347.1875 1257.722656 335.113281 1249.308594 332.136719 C 1238.96875 328.480469 1229.945312 338.664062 1221.308594 342.015625 C 1208.421875 347 1193.5625 334.121094 1182.574219 329.207031 C 1165.433594 321.550781 1160.71875 338.585938 1145.601562 341.417969 C 1119.714844 346.261719 1111.035156 301.191406 1080.933594 324.359375 C 1063.636719 337.679688 1034.238281 389.78125 1015.410156 346.644531 C 1013.925781 343.246094 1011.390625 339.851562 1007.734375 339.253906 C 1004.449219 338.714844 1001.285156 340.570312 998.574219 342.496094 C 995.851562 344.425781 993.011719 346.585938 989.6875 346.746094 C 981.667969 347.136719 983.027344 333.179688 979.230469 328.421875 C 973.316406 320.996094 956.304688 326.507812 947.308594 333.585938 L 947.308594 360.640625 C 951.449219 369.691406 957.144531 378.023438 964.203125 385.042969 C 993.226562 413.925781 1042.523438 417.109375 1077.769531 396.289062 C 1089.898438 389.132812 1100.757812 379.460938 1114.101562 374.957031 C 1139.292969 366.445312 1166.496094 378.152344 1189.996094 390.609375 C 1213.484375 403.074219 1238.761719 417.011719 1265.042969 412.980469 C 1296.148438 408.203125 1319.894531 379.242188 1351.226562 376.316406 C 1370.605469 374.503906 1389.488281 383.097656 1408.9375 384.03125 C 1418.222656 384.476562 1428.707031 382.59375 1438.714844 378.785156 L 1438.714844 315.757812 C 1435.519531 314.121094 1431.996094 312.8125 1428.109375 311.886719 C 1415.660156 308.925781 1401.957031 311.6875 1391.640625 319.257812 Z M 1391.640625 319.257812 " fill-opacity="1" fill-rule="nonzero"/><g clip-path="url(#id19)"><path fill="rgb(30.589294%, 78.819275%, 96.078491%)" d="M 921.578125 305.210938 C 914.375 310.011719 908.328125 316.632812 900.4375 320.195312 C 874.410156 331.949219 852.789062 291.3125 832.539062 301.363281 C 826.320312 304.449219 822.097656 310.355469 817.699219 315.726562 C 813.304688 321.101562 807.976562 326.4375 801.121094 327.535156 C 788.90625 329.492188 778.578125 317.421875 766.238281 316.503906 C 749.875 315.285156 736.742188 333.730469 720.417969 332.0625 C 704.941406 330.484375 697.589844 312.84375 687.007812 301.4375 C 650.941406 262.570312 609.914062 304.511719 577.523438 320.964844 C 562.300781 328.695312 543.828125 329.707031 527.835938 323.753906 C 527.289062 323.550781 526.746094 323.339844 526.207031 323.117188 C 501.476562 313.066406 484.519531 312.058594 474.234375 326.179688 L 474.234375 506.027344 L 965.640625 506.027344 L 965.640625 298.3125 C 950.339844 295.039062 932.855469 297.699219 921.578125 305.210938 Z M 921.578125 305.210938 " fill-opacity="1" fill-rule="nonzero"/></g><path fill="rgb(69.40918%, 89.019775%, 98.039246%)" d="M 921.578125 305.210938 C 914.375 310.011719 908.328125 316.632812 900.4375 320.195312 C 874.410156 331.949219 852.789062 291.3125 832.539062 301.363281 C 826.320312 304.449219 822.097656 310.355469 817.699219 315.726562 C 813.304688 321.101562 807.976562 326.4375 801.121094 327.535156 C 788.90625 329.492188 778.578125 317.421875 766.238281 316.503906 C 749.875 315.285156 736.742188 333.730469 720.417969 332.0625 C 704.941406 330.484375 697.589844 312.84375 687.007812 301.4375 C 650.941406 262.570312 609.914062 304.511719 577.523438 320.964844 C 562.300781 328.695312 543.828125 329.707031 527.835938 323.753906 C 527.289062 323.550781 526.746094 323.339844 526.207031 323.117188 C 501.476562 313.066406 484.519531 312.058594 474.234375 326.179688 L 474.234375 352.683594 C 483.226562 345.605469 500.242188 340.09375 506.15625 347.519531 C 509.949219 352.277344 508.59375 366.238281 516.613281 365.84375 C 519.933594 365.6875 522.773438 363.523438 525.496094 361.597656 C 528.210938 359.667969 531.375 357.8125 534.65625 358.351562 C 538.3125 358.953125 540.847656 362.34375 542.332031 365.746094 C 561.164062 408.882812 590.558594 356.78125 607.855469 343.460938 C 637.960938 320.289062 646.636719 365.363281 672.527344 360.515625 C 687.640625 357.683594 692.359375 340.648438 709.5 348.304688 C 720.488281 353.222656 735.347656 366.097656 748.230469 361.113281 C 756.871094 357.761719 765.894531 347.578125 776.230469 351.234375 C 784.644531 354.214844 786.34375 366.285156 792.902344 371.789062 C 795.691406 374.121094 799.542969 375.496094 803.015625 374.414062 C 811.632812 371.730469 811.09375 357.695312 819.152344 353.625 C 823.054688 351.65625 828.152344 352.570312 831.585938 349.859375 C 835.652344 346.644531 835.054688 340.429688 836.714844 335.515625 C 839.113281 328.429688 847.21875 324.210938 854.472656 325.519531 C 863.546875 327.160156 867.800781 336.675781 872.449219 343.644531 C 886.269531 363.472656 905.335938 348.050781 918.5625 338.355469 C 928.882812 330.789062 942.582031 328.027344 955.035156 330.984375 C 958.917969 331.910156 962.441406 333.222656 965.640625 334.859375 L 965.640625 298.3125 C 950.339844 295.039062 932.855469 297.699219 921.578125 305.210938 Z M 921.578125 305.210938 " fill-opacity="1" fill-rule="nonzero"/><g clip-path="url(#id20)"><path fill="rgb(0%, 72.158813%, 94.509888%)" d="M 935.859375 403.128906 C 916.410156 402.195312 897.53125 393.605469 878.148438 395.414062 C 846.816406 398.34375 823.074219 427.304688 791.96875 432.082031 C 765.6875 436.109375 740.410156 422.171875 716.917969 409.707031 C 693.421875 397.25 666.214844 385.542969 641.027344 394.054688 C 627.679688 398.558594 616.820312 408.230469 604.691406 415.386719 C 569.449219 436.210938 520.152344 433.023438 491.128906 404.144531 C 484.070312 397.121094 478.371094 388.789062 474.234375 379.738281 L 474.234375 506.027344 L 965.640625 506.027344 L 965.640625 397.886719 C 955.632812 401.691406 945.148438 403.578125 935.859375 403.128906 Z M 935.859375 403.128906 " fill-opacity="1" fill-rule="nonzero"/></g><path fill="rgb(30.589294%, 78.819275%, 96.078491%)" d="M 918.5625 338.355469 C 905.335938 348.050781 886.269531 363.472656 872.449219 343.644531 C 867.800781 336.675781 863.546875 327.160156 854.472656 325.519531 C 847.21875 324.210938 839.113281 328.429688 836.714844 335.515625 C 835.054688 340.429688 835.652344 346.644531 831.585938 349.859375 C 828.152344 352.570312 823.054688 351.65625 819.152344 353.625 C 811.09375 357.695312 811.632812 371.730469 803.015625 374.414062 C 799.542969 375.496094 795.691406 374.121094 792.902344 371.789062 C 786.34375 366.285156 784.644531 354.214844 776.230469 351.234375 C 765.894531 347.578125 756.871094 357.761719 748.230469 361.113281 C 735.347656 366.097656 720.488281 353.222656 709.5 348.304688 C 692.359375 340.648438 687.640625 357.683594 672.527344 360.515625 C 646.636719 365.363281 637.960938 320.289062 607.855469 343.460938 C 590.558594 356.78125 561.164062 408.882812 542.332031 365.746094 C 540.847656 362.34375 538.3125 358.953125 534.65625 358.351562 C 531.375 357.8125 528.210938 359.667969 525.496094 361.597656 C 522.773438 363.523438 519.933594 365.6875 516.613281 365.84375 C 508.59375 366.238281 509.949219 352.277344 506.15625 347.519531 C 500.242188 340.09375 483.226562 345.605469 474.234375 352.683594 L 474.234375 379.738281 C 478.371094 388.789062 484.070312 397.121094 491.128906 404.144531 C 520.152344 433.023438 569.449219 436.210938 604.691406 415.386719 C 616.820312 408.230469 627.679688 398.558594 641.027344 394.054688 C 666.214844 385.542969 693.421875 397.25 716.917969 409.707031 C 740.410156 422.171875 765.6875 436.109375 791.96875 432.082031 C 823.074219 427.304688 846.816406 398.34375 878.148438 395.414062 C 897.53125 393.605469 916.410156 402.195312 935.859375 403.128906 C 945.148438 403.578125 955.632812 401.691406 965.640625 397.886719 L 965.640625 334.859375 C 962.441406 333.222656 958.917969 331.910156 955.035156 330.984375 C 942.582031 328.027344 928.882812 330.789062 918.5625 338.355469 Z M 918.5625 338.355469 " fill-opacity="1" fill-rule="nonzero"/></svg>