<svg xmlns="http://www.w3.org/2000/svg" xmlns:xlink="http://www.w3.org/1999/xlink" width="1526" zoomAndPan="magnify" viewBox="0 0 1144.5 119.249998" height="159" preserveAspectRatio="xMidYMid meet" version="1.0"><defs><g><g id="id1"/></g></defs><g fill="rgb(55.288696%, 56.469727%, 73.329163%)" fill-opacity="1"><g transform="translate(262.425937, 67.907038)"><g><path d="M 22.8125 -17 L 18.390625 0 L 8.765625 0 L 13.1875 -17 L 5.28125 -17 L 7.765625 -26.390625 L 15.671875 -26.390625 L 18.625 -37.71875 L 10.328125 -37.71875 L 12.8125 -47.109375 L 21.109375 -47.109375 L 25.53125 -64.03125 L 35.15625 -64.03125 L 30.734375 -47.109375 L 39.109375 -47.109375 L 43.53125 -64.03125 L 53.15625 -64.03125 L 48.734375 -47.109375 L 56.65625 -47.109375 L 54.171875 -37.71875 L 46.25 -37.71875 L 43.3125 -26.390625 L 51.609375 -26.390625 L 49.125 -17 L 40.828125 -17 L 36.40625 0 L 26.78125 0 L 31.203125 -17 Z M 33.6875 -26.390625 L 36.625 -37.71875 L 28.25 -37.71875 L 25.296875 -26.390625 Z M 33.6875 -26.390625 "/></g></g></g><g fill="rgb(55.288696%, 56.469727%, 73.329163%)" fill-opacity="1"><g transform="translate(323.192969, 67.907038)"><g><path d="M 28.25 -65.1875 C 31.71875 -65.1875 35.109375 -64.679688 38.421875 -63.671875 C 41.734375 -62.671875 44.191406 -61.675781 45.796875 -60.6875 L 48.125 -59.140625 L 42.21875 -47.5 C 41.75 -47.8125 41.097656 -48.210938 40.265625 -48.703125 C 39.441406 -49.191406 37.890625 -49.847656 35.609375 -50.671875 C 33.335938 -51.503906 31.222656 -51.921875 29.265625 -51.921875 C 26.828125 -51.921875 24.945312 -51.398438 23.625 -50.359375 C 22.3125 -49.328125 21.65625 -47.929688 21.65625 -46.171875 C 21.65625 -45.296875 21.960938 -44.484375 22.578125 -43.734375 C 23.203125 -42.984375 24.265625 -42.179688 25.765625 -41.328125 C 27.265625 -40.472656 28.582031 -39.785156 29.71875 -39.265625 C 30.863281 -38.753906 32.625 -37.976562 35 -36.9375 C 39.132812 -35.175781 42.664062 -32.78125 45.59375 -29.75 C 48.519531 -26.726562 49.984375 -23.304688 49.984375 -19.484375 C 49.984375 -15.804688 49.320312 -12.597656 48 -9.859375 C 46.675781 -7.117188 44.863281 -4.972656 42.5625 -3.421875 C 40.257812 -1.867188 37.710938 -0.71875 34.921875 0.03125 C 32.128906 0.789062 29.101562 1.171875 25.84375 1.171875 C 23.050781 1.171875 20.304688 0.882812 17.609375 0.3125 C 14.921875 -0.257812 12.671875 -0.972656 10.859375 -1.828125 C 9.054688 -2.679688 7.425781 -3.519531 5.96875 -4.34375 C 4.519531 -5.175781 3.460938 -5.875 2.796875 -6.4375 L 1.78125 -7.296875 L 9.078125 -19.5625 C 9.703125 -19.039062 10.554688 -18.378906 11.640625 -17.578125 C 12.722656 -16.773438 14.648438 -15.703125 17.421875 -14.359375 C 20.191406 -13.015625 22.632812 -12.34375 24.75 -12.34375 C 30.914062 -12.34375 34 -14.4375 34 -18.625 C 34 -19.507812 33.773438 -20.328125 33.328125 -21.078125 C 32.890625 -21.828125 32.113281 -22.578125 31 -23.328125 C 29.894531 -24.078125 28.914062 -24.671875 28.0625 -25.109375 C 27.207031 -25.546875 25.804688 -26.21875 23.859375 -27.125 C 21.921875 -28.03125 20.488281 -28.71875 19.5625 -29.1875 C 15.675781 -31.09375 12.671875 -33.484375 10.546875 -36.359375 C 8.429688 -39.234375 7.375 -42.328125 7.375 -45.640625 C 7.375 -51.378906 9.492188 -56.070312 13.734375 -59.71875 C 17.972656 -63.363281 22.8125 -65.1875 28.25 -65.1875 Z M 28.25 -65.1875 "/></g></g></g><g fill="rgb(55.288696%, 56.469727%, 73.329163%)" fill-opacity="1"><g transform="translate(371.465122, 67.907038)"><g><path d="M 44.9375 -18 L 16.0625 -18 C 16.0625 -15.207031 16.96875 -13.140625 18.78125 -11.796875 C 20.59375 -10.453125 22.5625 -9.78125 24.6875 -9.78125 C 26.90625 -9.78125 28.660156 -10.078125 29.953125 -10.671875 C 31.242188 -11.265625 32.71875 -12.441406 34.375 -14.203125 L 44.3125 -9.234375 C 40.175781 -2.296875 33.296875 1.171875 23.671875 1.171875 C 17.671875 1.171875 12.519531 -0.882812 8.21875 -5 C 3.925781 -9.113281 1.78125 -14.066406 1.78125 -19.859375 C 1.78125 -25.660156 3.925781 -30.628906 8.21875 -34.765625 C 12.519531 -38.910156 17.671875 -40.984375 23.671875 -40.984375 C 29.984375 -40.984375 35.117188 -39.15625 39.078125 -35.5 C 43.035156 -31.851562 45.015625 -26.644531 45.015625 -19.875 C 45.015625 -18.9375 44.988281 -18.3125 44.9375 -18 Z M 16.453125 -25.609375 L 31.59375 -25.609375 C 31.28125 -27.679688 30.460938 -29.269531 29.140625 -30.375 C 27.816406 -31.488281 26.125 -32.046875 24.0625 -32.046875 C 21.78125 -32.046875 19.96875 -31.453125 18.625 -30.265625 C 17.28125 -29.078125 16.554688 -27.523438 16.453125 -25.609375 Z M 16.453125 -25.609375 "/></g></g></g><g fill="rgb(55.288696%, 56.469727%, 73.329163%)" fill-opacity="1"><g transform="translate(414.38232, 67.907038)"><g><path d="M 44.9375 -18 L 16.0625 -18 C 16.0625 -15.207031 16.96875 -13.140625 18.78125 -11.796875 C 20.59375 -10.453125 22.5625 -9.78125 24.6875 -9.78125 C 26.90625 -9.78125 28.660156 -10.078125 29.953125 -10.671875 C 31.242188 -11.265625 32.71875 -12.441406 34.375 -14.203125 L 44.3125 -9.234375 C 40.175781 -2.296875 33.296875 1.171875 23.671875 1.171875 C 17.671875 1.171875 12.519531 -0.882812 8.21875 -5 C 3.925781 -9.113281 1.78125 -14.066406 1.78125 -19.859375 C 1.78125 -25.660156 3.925781 -30.628906 8.21875 -34.765625 C 12.519531 -38.910156 17.671875 -40.984375 23.671875 -40.984375 C 29.984375 -40.984375 35.117188 -39.15625 39.078125 -35.5 C 43.035156 -31.851562 45.015625 -26.644531 45.015625 -19.875 C 45.015625 -18.9375 44.988281 -18.3125 44.9375 -18 Z M 16.453125 -25.609375 L 31.59375 -25.609375 C 31.28125 -27.679688 30.460938 -29.269531 29.140625 -30.375 C 27.816406 -31.488281 26.125 -32.046875 24.0625 -32.046875 C 21.78125 -32.046875 19.96875 -31.453125 18.625 -30.265625 C 17.28125 -29.078125 16.554688 -27.523438 16.453125 -25.609375 Z M 16.453125 -25.609375 "/></g></g></g><g fill="rgb(55.288696%, 56.469727%, 73.329163%)" fill-opacity="1"><g transform="translate(457.299518, 67.907038)"><g><path d="M -2.328125 -64.03125 L 15.21875 -64.03125 L 28.5625 -43.53125 L 41.90625 -64.03125 L 59.453125 -64.03125 L 35.859375 -28.71875 L 35.859375 0 L 21.265625 0 L 21.265625 -28.71875 Z M -2.328125 -64.03125 "/></g></g></g><g fill="rgb(55.288696%, 56.469727%, 73.329163%)" fill-opacity="1"><g transform="translate(510.53858, 67.907038)"><g><path d="M 8.421875 -4.71875 C 3.992188 -8.65625 1.78125 -13.703125 1.78125 -19.859375 C 1.78125 -26.023438 4.082031 -31.085938 8.6875 -35.046875 C 13.289062 -39.003906 18.984375 -40.984375 25.765625 -40.984375 C 32.441406 -40.984375 38.066406 -38.988281 42.640625 -35 C 47.222656 -31.019531 49.515625 -25.972656 49.515625 -19.859375 C 49.515625 -13.753906 47.273438 -8.722656 42.796875 -4.765625 C 38.328125 -0.804688 32.648438 1.171875 25.765625 1.171875 C 18.628906 1.171875 12.847656 -0.789062 8.421875 -4.71875 Z M 19.046875 -26.625 C 17.265625 -24.863281 16.375 -22.609375 16.375 -19.859375 C 16.375 -17.117188 17.226562 -14.882812 18.9375 -13.15625 C 20.644531 -11.425781 22.894531 -10.5625 25.6875 -10.5625 C 28.375 -10.5625 30.582031 -11.4375 32.3125 -13.1875 C 34.050781 -14.945312 34.921875 -17.175781 34.921875 -19.875 C 34.921875 -22.613281 34.023438 -24.863281 32.234375 -26.625 C 30.453125 -28.382812 28.269531 -29.265625 25.6875 -29.265625 C 23.050781 -29.265625 20.835938 -28.382812 19.046875 -26.625 Z M 19.046875 -26.625 "/></g></g></g><g fill="rgb(55.288696%, 56.469727%, 73.329163%)" fill-opacity="1"><g transform="translate(557.957059, 67.907038)"><g><path d="M 17.625 -39.8125 L 17.625 -20.875 C 17.625 -16.945312 18.21875 -14.15625 19.40625 -12.5 C 20.59375 -10.84375 22.609375 -10.015625 25.453125 -10.015625 C 28.296875 -10.015625 30.3125 -10.84375 31.5 -12.5 C 32.695312 -14.15625 33.296875 -16.945312 33.296875 -20.875 L 33.296875 -39.8125 L 47.03125 -39.8125 L 47.03125 -17.546875 C 47.03125 -10.921875 45.304688 -6.144531 41.859375 -3.21875 C 38.421875 -0.289062 32.953125 1.171875 25.453125 1.171875 C 17.953125 1.171875 12.476562 -0.289062 9.03125 -3.21875 C 5.59375 -6.144531 3.875 -10.921875 3.875 -17.546875 L 3.875 -39.8125 Z M 17.625 -39.8125 "/></g></g></g><g fill="rgb(55.288696%, 56.469727%, 73.329163%)" fill-opacity="1"><g transform="translate(604.987475, 67.907038)"><g><path d="M 19.25 -64.03125 L 19.25 0 L 4.65625 0 L 4.65625 -64.03125 Z M 19.25 -64.03125 "/></g></g></g><g fill="rgb(55.288696%, 56.469727%, 73.329163%)" fill-opacity="1"><g transform="translate(625.010324, 67.907038)"><g><path d="M 4.65625 0 L 4.65625 -39.8125 L 18.390625 -39.8125 L 18.390625 -35.625 L 18.546875 -35.625 C 22.117188 -39.195312 25.921875 -40.984375 29.953125 -40.984375 C 31.921875 -40.984375 33.875 -40.722656 35.8125 -40.203125 C 37.757812 -39.679688 39.625 -38.878906 41.40625 -37.796875 C 43.1875 -36.710938 44.632812 -35.171875 45.75 -33.171875 C 46.863281 -31.179688 47.421875 -28.867188 47.421875 -26.234375 L 47.421875 0 L 33.6875 0 L 33.6875 -22.5 C 33.6875 -24.570312 33.023438 -26.382812 31.703125 -27.9375 C 30.378906 -29.488281 28.660156 -30.265625 26.546875 -30.265625 C 24.472656 -30.265625 22.59375 -29.460938 20.90625 -27.859375 C 19.226562 -26.253906 18.390625 -24.46875 18.390625 -22.5 L 18.390625 0 Z M 4.65625 0 "/></g></g></g><g fill="rgb(55.288696%, 56.469727%, 73.329163%)" fill-opacity="1"><g transform="translate(672.428803, 67.907038)"><g><path d="M 37.171875 -64.03125 L 63.015625 0 L 47.34375 0 L 42.609375 -12.8125 L 18.234375 -12.8125 L 13.5 0 L -2.171875 0 L 23.671875 -64.03125 Z M 37.640625 -25.609375 L 30.5 -44.234375 L 30.34375 -44.234375 L 23.203125 -25.609375 Z M 37.640625 -25.609375 "/></g></g></g><g fill="rgb(55.288696%, 56.469727%, 73.329163%)" fill-opacity="1"><g transform="translate(729.393038, 67.907038)"><g><path d="M 45.625 -34.890625 C 49.351562 -30.828125 51.21875 -25.84375 51.21875 -19.9375 C 51.21875 -14.039062 49.351562 -9.046875 45.625 -4.953125 C 41.90625 -0.867188 37.175781 1.171875 31.4375 1.171875 C 26.15625 1.171875 21.804688 -0.484375 18.390625 -3.796875 L 18.390625 20.171875 L 4.65625 20.171875 L 4.65625 -39.8125 L 18.234375 -39.8125 L 18.234375 -35.3125 L 18.390625 -35.3125 C 21.804688 -39.09375 26.15625 -40.984375 31.4375 -40.984375 C 37.175781 -40.984375 41.90625 -38.953125 45.625 -34.890625 Z M 33.953125 -13.1875 C 35.734375 -14.945312 36.625 -17.195312 36.625 -19.9375 C 36.625 -22.6875 35.769531 -24.925781 34.0625 -26.65625 C 32.363281 -28.394531 30.113281 -29.265625 27.3125 -29.265625 C 24.625 -29.265625 22.410156 -28.382812 20.671875 -26.625 C 18.941406 -24.863281 18.078125 -22.640625 18.078125 -19.953125 C 18.078125 -17.203125 18.96875 -14.945312 20.75 -13.1875 C 22.539062 -11.4375 24.726562 -10.5625 27.3125 -10.5625 C 29.957031 -10.5625 32.171875 -11.4375 33.953125 -13.1875 Z M 33.953125 -13.1875 "/></g></g></g><g fill="rgb(55.288696%, 56.469727%, 73.329163%)" fill-opacity="1"><g transform="translate(778.518864, 67.907038)"><g><path d="M 4.65625 0 L 4.65625 -39.8125 L 18.390625 -39.8125 L 18.390625 -34.078125 L 18.546875 -34.078125 C 18.648438 -34.273438 18.816406 -34.53125 19.046875 -34.84375 C 19.285156 -35.15625 19.789062 -35.695312 20.5625 -36.46875 C 21.34375 -37.25 22.171875 -37.945312 23.046875 -38.5625 C 23.929688 -39.1875 25.070312 -39.742188 26.46875 -40.234375 C 27.863281 -40.734375 29.285156 -40.984375 30.734375 -40.984375 C 32.234375 -40.984375 33.707031 -40.773438 35.15625 -40.359375 C 36.601562 -39.941406 37.664062 -39.523438 38.34375 -39.109375 L 39.421875 -38.5 L 33.6875 -26.859375 C 31.976562 -28.304688 29.597656 -29.03125 26.546875 -29.03125 C 24.890625 -29.03125 23.460938 -28.664062 22.265625 -27.9375 C 21.078125 -27.21875 20.238281 -26.335938 19.75 -25.296875 C 19.257812 -24.265625 18.910156 -23.382812 18.703125 -22.65625 C 18.492188 -21.9375 18.390625 -21.367188 18.390625 -20.953125 L 18.390625 0 Z M 4.65625 0 "/></g></g></g><g fill="rgb(55.288696%, 56.469727%, 73.329163%)" fill-opacity="1"><g transform="translate(813.287234, 67.907038)"><g><path d="M 5.96875 -62.015625 C 7.570312 -63.617188 9.488281 -64.421875 11.71875 -64.421875 C 13.945312 -64.421875 15.863281 -63.617188 17.46875 -62.015625 C 19.070312 -60.410156 19.875 -58.492188 19.875 -56.265625 C 19.875 -54.035156 19.070312 -52.117188 17.46875 -50.515625 C 15.863281 -48.921875 13.945312 -48.125 11.71875 -48.125 C 9.488281 -48.125 7.570312 -48.921875 5.96875 -50.515625 C 4.363281 -52.117188 3.5625 -54.035156 3.5625 -56.265625 C 3.5625 -58.492188 4.363281 -60.410156 5.96875 -62.015625 Z M 4.65625 -39.8125 L 4.65625 0 L 18.390625 0 L 18.390625 -39.8125 Z M 4.65625 -39.8125 "/></g></g></g><g fill="rgb(55.288696%, 56.469727%, 73.329163%)" fill-opacity="1"><g transform="translate(832.844415, 67.907038)"><g><path d="M 4.65625 0 L 4.65625 -66.75 L 18.390625 -66.75 L 18.390625 0 Z M 4.65625 0 "/></g></g></g><g fill="rgb(55.288696%, 56.469727%, 73.329163%)" fill-opacity="1"><g transform="translate(852.013571, 67.907038)"><g><path d="M 13.5 -16.609375 C 15.988281 -16.609375 18.097656 -15.738281 19.828125 -14 C 21.554688 -12.269531 22.421875 -10.164062 22.421875 -7.6875 C 22.421875 -5.25 21.554688 -3.160156 19.828125 -1.421875 C 18.097656 0.304688 15.988281 1.171875 13.5 1.171875 C 11.070312 1.171875 8.988281 0.304688 7.25 -1.421875 C 5.519531 -3.160156 4.65625 -5.25 4.65625 -7.6875 C 4.65625 -10.164062 5.519531 -12.269531 7.25 -14 C 8.988281 -15.738281 11.070312 -16.609375 13.5 -16.609375 Z M 13.5 -16.609375 "/></g></g></g></svg>