<svg xmlns="http://www.w3.org/2000/svg" xmlns:xlink="http://www.w3.org/1999/xlink" width="1526" zoomAndPan="magnify" viewBox="0 0 1144.5 119.249998" height="159" preserveAspectRatio="xMidYMid meet" version="1.0"><defs><g><g id="id1"/></g></defs><g fill="rgb(0%, 29.019165%, 67.83905%)" fill-opacity="1"><g transform="translate(281.183181, 65.660317)"><g><path d="M 22.125 -16.484375 L 17.828125 0 L 8.5 0 L 12.796875 -16.484375 L 5.109375 -16.484375 L 7.53125 -25.578125 L 15.203125 -25.578125 L 18.0625 -36.578125 L 10.015625 -36.578125 L 12.421875 -45.671875 L 20.46875 -45.671875 L 24.75 -62.078125 L 34.09375 -62.078125 L 29.796875 -45.671875 L 37.921875 -45.671875 L 42.21875 -62.078125 L 51.546875 -62.078125 L 47.25 -45.671875 L 54.9375 -45.671875 L 52.53125 -36.578125 L 44.84375 -36.578125 L 41.984375 -25.578125 L 50.046875 -25.578125 L 47.640625 -16.484375 L 39.578125 -16.484375 L 35.296875 0 L 25.96875 0 L 30.25 -16.484375 Z M 32.65625 -25.578125 L 35.515625 -36.578125 L 27.390625 -36.578125 L 24.53125 -25.578125 Z M 32.65625 -25.578125 "/></g></g></g><g fill="rgb(0%, 29.019165%, 67.83905%)" fill-opacity="1"><g transform="translate(340.104482, 65.660317)"><g><path d="M 27.390625 -63.203125 C 30.753906 -63.203125 34.039062 -62.710938 37.25 -61.734375 C 40.457031 -60.765625 42.835938 -59.800781 44.390625 -58.84375 L 46.65625 -57.34375 L 40.9375 -46.046875 C 40.488281 -46.347656 39.859375 -46.738281 39.046875 -47.21875 C 38.242188 -47.695312 36.738281 -48.335938 34.53125 -49.140625 C 32.332031 -49.941406 30.28125 -50.34375 28.375 -50.34375 C 26.007812 -50.34375 24.1875 -49.835938 22.90625 -48.828125 C 21.632812 -47.828125 21 -46.476562 21 -44.78125 C 21 -43.925781 21.296875 -43.132812 21.890625 -42.40625 C 22.492188 -41.675781 23.523438 -40.894531 24.984375 -40.0625 C 26.441406 -39.238281 27.71875 -38.578125 28.8125 -38.078125 C 29.914062 -37.578125 31.625 -36.820312 33.9375 -35.8125 C 37.945312 -34.113281 41.367188 -31.796875 44.203125 -28.859375 C 47.046875 -25.921875 48.46875 -22.597656 48.46875 -18.890625 C 48.46875 -15.328125 47.828125 -12.210938 46.546875 -9.546875 C 45.265625 -6.890625 43.503906 -4.804688 41.265625 -3.296875 C 39.035156 -1.796875 36.566406 -0.6875 33.859375 0.03125 C 31.148438 0.757812 28.21875 1.125 25.0625 1.125 C 22.351562 1.125 19.691406 0.847656 17.078125 0.296875 C 14.472656 -0.253906 12.289062 -0.941406 10.53125 -1.765625 C 8.78125 -2.597656 7.203125 -3.414062 5.796875 -4.21875 C 4.390625 -5.019531 3.359375 -5.695312 2.703125 -6.25 L 1.734375 -7.078125 L 8.796875 -18.96875 C 9.398438 -18.457031 10.226562 -17.8125 11.28125 -17.03125 C 12.34375 -16.257812 14.210938 -15.222656 16.890625 -13.921875 C 19.578125 -12.617188 21.945312 -11.96875 24 -11.96875 C 29.96875 -11.96875 32.953125 -14 32.953125 -18.0625 C 32.953125 -18.914062 32.738281 -19.703125 32.3125 -20.421875 C 31.894531 -21.148438 31.144531 -21.878906 30.0625 -22.609375 C 28.976562 -23.335938 28.023438 -23.914062 27.203125 -24.34375 C 26.378906 -24.769531 25.023438 -25.421875 23.140625 -26.296875 C 21.253906 -27.171875 19.863281 -27.835938 18.96875 -28.296875 C 15.195312 -30.148438 12.285156 -32.46875 10.234375 -35.25 C 8.179688 -38.039062 7.15625 -41.039062 7.15625 -44.25 C 7.15625 -49.8125 9.207031 -54.359375 13.3125 -57.890625 C 17.425781 -61.429688 22.117188 -63.203125 27.390625 -63.203125 Z M 27.390625 -63.203125 "/></g></g></g><g fill="rgb(0%, 29.019165%, 67.83905%)" fill-opacity="1"><g transform="translate(386.910347, 65.660317)"><g><path d="M 43.5625 -17.453125 L 15.578125 -17.453125 C 15.578125 -14.742188 16.453125 -12.738281 18.203125 -11.4375 C 19.960938 -10.132812 21.867188 -9.484375 23.921875 -9.484375 C 26.085938 -9.484375 27.796875 -9.769531 29.046875 -10.34375 C 30.296875 -10.925781 31.722656 -12.066406 33.328125 -13.765625 L 42.96875 -8.953125 C 38.957031 -2.234375 32.285156 1.125 22.953125 1.125 C 17.128906 1.125 12.132812 -0.867188 7.96875 -4.859375 C 3.8125 -8.847656 1.734375 -13.648438 1.734375 -19.265625 C 1.734375 -24.878906 3.8125 -29.691406 7.96875 -33.703125 C 12.132812 -37.722656 17.128906 -39.734375 22.953125 -39.734375 C 29.066406 -39.734375 34.039062 -37.960938 37.875 -34.421875 C 41.71875 -30.890625 43.640625 -25.835938 43.640625 -19.265625 C 43.640625 -18.359375 43.613281 -17.753906 43.5625 -17.453125 Z M 15.953125 -24.828125 L 30.625 -24.828125 C 30.320312 -26.835938 29.53125 -28.378906 28.25 -29.453125 C 26.976562 -30.535156 25.335938 -31.078125 23.328125 -31.078125 C 21.117188 -31.078125 19.363281 -30.5 18.0625 -29.34375 C 16.757812 -28.1875 16.054688 -26.679688 15.953125 -24.828125 Z M 15.953125 -24.828125 "/></g></g></g><g fill="rgb(0%, 29.019165%, 67.83905%)" fill-opacity="1"><g transform="translate(428.52387, 65.660317)"><g><path d="M 43.5625 -17.453125 L 15.578125 -17.453125 C 15.578125 -14.742188 16.453125 -12.738281 18.203125 -11.4375 C 19.960938 -10.132812 21.867188 -9.484375 23.921875 -9.484375 C 26.085938 -9.484375 27.796875 -9.769531 29.046875 -10.34375 C 30.296875 -10.925781 31.722656 -12.066406 33.328125 -13.765625 L 42.96875 -8.953125 C 38.957031 -2.234375 32.285156 1.125 22.953125 1.125 C 17.128906 1.125 12.132812 -0.867188 7.96875 -4.859375 C 3.8125 -8.847656 1.734375 -13.648438 1.734375 -19.265625 C 1.734375 -24.878906 3.8125 -29.691406 7.96875 -33.703125 C 12.132812 -37.722656 17.128906 -39.734375 22.953125 -39.734375 C 29.066406 -39.734375 34.039062 -37.960938 37.875 -34.421875 C 41.71875 -30.890625 43.640625 -25.835938 43.640625 -19.265625 C 43.640625 -18.359375 43.613281 -17.753906 43.5625 -17.453125 Z M 15.953125 -24.828125 L 30.625 -24.828125 C 30.320312 -26.835938 29.53125 -28.378906 28.25 -29.453125 C 26.976562 -30.535156 25.335938 -31.078125 23.328125 -31.078125 C 21.117188 -31.078125 19.363281 -30.5 18.0625 -29.34375 C 16.757812 -28.1875 16.054688 -26.679688 15.953125 -24.828125 Z M 15.953125 -24.828125 "/></g></g></g><g fill="rgb(0%, 29.019165%, 67.83905%)" fill-opacity="1"><g transform="translate(470.137393, 65.660317)"><g><path d="M -2.25 -62.078125 L 14.75 -62.078125 L 27.6875 -42.21875 L 40.640625 -62.078125 L 57.640625 -62.078125 L 34.765625 -27.84375 L 34.765625 0 L 20.625 0 L 20.625 -27.84375 Z M -2.25 -62.078125 "/></g></g></g><g fill="rgb(0%, 29.019165%, 67.83905%)" fill-opacity="1"><g transform="translate(521.759334, 65.660317)"><g><path d="M 8.15625 -4.59375 C 3.875 -8.40625 1.734375 -13.296875 1.734375 -19.265625 C 1.734375 -25.234375 3.960938 -30.132812 8.421875 -33.96875 C 12.890625 -37.8125 18.410156 -39.734375 24.984375 -39.734375 C 31.453125 -39.734375 36.90625 -37.800781 41.34375 -33.9375 C 45.789062 -30.070312 48.015625 -25.179688 48.015625 -19.265625 C 48.015625 -13.347656 45.84375 -8.46875 41.5 -4.625 C 37.15625 -0.789062 31.648438 1.125 24.984375 1.125 C 18.054688 1.125 12.445312 -0.78125 8.15625 -4.59375 Z M 18.46875 -25.8125 C 16.738281 -24.101562 15.875 -21.921875 15.875 -19.265625 C 15.875 -16.609375 16.703125 -14.4375 18.359375 -12.75 C 20.015625 -11.070312 22.195312 -10.234375 24.90625 -10.234375 C 27.519531 -10.234375 29.664062 -11.082031 31.34375 -12.78125 C 33.019531 -14.488281 33.859375 -16.648438 33.859375 -19.265625 C 33.859375 -21.921875 32.992188 -24.101562 31.265625 -25.8125 C 29.535156 -27.519531 27.414062 -28.375 24.90625 -28.375 C 22.34375 -28.375 20.195312 -27.519531 18.46875 -25.8125 Z M 18.46875 -25.8125 "/></g></g></g><g fill="rgb(0%, 29.019165%, 67.83905%)" fill-opacity="1"><g transform="translate(567.737427, 65.660317)"><g><path d="M 17.078125 -38.609375 L 17.078125 -20.25 C 17.078125 -16.425781 17.65625 -13.710938 18.8125 -12.109375 C 19.96875 -10.503906 21.925781 -9.703125 24.6875 -9.703125 C 27.445312 -9.703125 29.398438 -10.503906 30.546875 -12.109375 C 31.703125 -13.710938 32.28125 -16.425781 32.28125 -20.25 L 32.28125 -38.609375 L 45.59375 -38.609375 L 45.59375 -17 C 45.59375 -10.582031 43.925781 -5.957031 40.59375 -3.125 C 37.257812 -0.289062 31.953125 1.125 24.671875 1.125 C 17.398438 1.125 12.097656 -0.289062 8.765625 -3.125 C 5.429688 -5.957031 3.765625 -10.582031 3.765625 -17 L 3.765625 -38.609375 Z M 17.078125 -38.609375 "/></g></g></g><g fill="rgb(0%, 29.019165%, 67.83905%)" fill-opacity="1"><g transform="translate(613.339265, 65.660317)"><g><path d="M 18.65625 -62.078125 L 18.65625 0 L 4.515625 0 L 4.515625 -62.078125 Z M 18.65625 -62.078125 "/></g></g></g><g fill="rgb(0%, 29.019165%, 67.83905%)" fill-opacity="1"><g transform="translate(632.753707, 65.660317)"><g><path d="M 4.515625 0 L 4.515625 -38.609375 L 17.828125 -38.609375 L 17.828125 -34.546875 L 17.984375 -34.546875 C 21.441406 -38.003906 25.128906 -39.734375 29.046875 -39.734375 C 30.953125 -39.734375 32.84375 -39.484375 34.71875 -38.984375 C 36.601562 -38.484375 38.410156 -37.703125 40.140625 -36.640625 C 41.867188 -35.585938 43.273438 -34.09375 44.359375 -32.15625 C 45.441406 -30.226562 45.984375 -27.988281 45.984375 -25.4375 L 45.984375 0 L 32.65625 0 L 32.65625 -21.828125 C 32.65625 -23.828125 32.015625 -25.578125 30.734375 -27.078125 C 29.460938 -28.585938 27.796875 -29.34375 25.734375 -29.34375 C 23.722656 -29.34375 21.898438 -28.566406 20.265625 -27.015625 C 18.640625 -25.460938 17.828125 -23.734375 17.828125 -21.828125 L 17.828125 0 Z M 4.515625 0 "/></g></g></g><g fill="rgb(0%, 29.019165%, 67.83905%)" fill-opacity="1"><g transform="translate(678.731778, 65.660317)"><g><path d="M 36.046875 -62.078125 L 61.109375 0 L 45.90625 0 L 41.3125 -12.421875 L 17.6875 -12.421875 L 13.09375 0 L -2.109375 0 L 22.953125 -62.078125 Z M 36.5 -24.828125 L 29.578125 -42.890625 L 29.421875 -42.890625 L 22.5 -24.828125 Z M 36.5 -24.828125 "/></g></g></g><g fill="rgb(0%, 29.019165%, 67.83905%)" fill-opacity="1"><g transform="translate(733.965791, 65.660317)"><g><path d="M 44.25 -33.828125 C 47.863281 -29.890625 49.671875 -25.0625 49.671875 -19.34375 C 49.671875 -13.625 47.863281 -8.78125 44.25 -4.8125 C 40.632812 -0.851562 36.039062 1.125 30.46875 1.125 C 25.351562 1.125 21.140625 -0.476562 17.828125 -3.6875 L 17.828125 19.5625 L 4.515625 19.5625 L 4.515625 -38.609375 L 17.6875 -38.609375 L 17.6875 -34.234375 L 17.828125 -34.234375 C 21.140625 -37.898438 25.351562 -39.734375 30.46875 -39.734375 C 36.039062 -39.734375 40.632812 -37.765625 44.25 -33.828125 Z M 32.921875 -12.78125 C 34.648438 -14.488281 35.515625 -16.671875 35.515625 -19.328125 C 35.515625 -21.992188 34.6875 -24.164062 33.03125 -25.84375 C 31.375 -27.53125 29.191406 -28.375 26.484375 -28.375 C 23.878906 -28.375 21.734375 -27.519531 20.046875 -25.8125 C 18.367188 -24.101562 17.53125 -21.945312 17.53125 -19.34375 C 17.53125 -16.675781 18.394531 -14.488281 20.125 -12.78125 C 21.851562 -11.082031 23.972656 -10.234375 26.484375 -10.234375 C 29.046875 -10.234375 31.191406 -11.082031 32.921875 -12.78125 Z M 32.921875 -12.78125 "/></g></g></g><g fill="rgb(0%, 29.019165%, 67.83905%)" fill-opacity="1"><g transform="translate(781.599429, 65.660317)"><g><path d="M 4.515625 0 L 4.515625 -38.609375 L 17.828125 -38.609375 L 17.828125 -33.03125 L 17.984375 -33.03125 C 18.085938 -33.226562 18.25 -33.476562 18.46875 -33.78125 C 18.695312 -34.082031 19.1875 -34.609375 19.9375 -35.359375 C 20.6875 -36.117188 21.488281 -36.796875 22.34375 -37.390625 C 23.195312 -37.992188 24.300781 -38.535156 25.65625 -39.015625 C 27.007812 -39.492188 28.390625 -39.734375 29.796875 -39.734375 C 31.253906 -39.734375 32.679688 -39.53125 34.078125 -39.125 C 35.484375 -38.726562 36.515625 -38.328125 37.171875 -37.921875 L 38.234375 -37.328125 L 32.65625 -26.03125 C 31 -27.4375 28.691406 -28.140625 25.734375 -28.140625 C 24.128906 -28.140625 22.75 -27.785156 21.59375 -27.078125 C 20.4375 -26.378906 19.617188 -25.53125 19.140625 -24.53125 C 18.671875 -23.53125 18.332031 -22.675781 18.125 -21.96875 C 17.925781 -21.269531 17.828125 -20.71875 17.828125 -20.3125 L 17.828125 0 Z M 4.515625 0 "/></g></g></g><g fill="rgb(0%, 29.019165%, 67.83905%)" fill-opacity="1"><g transform="translate(815.311607, 65.660317)"><g><path d="M 5.796875 -60.125 C 7.347656 -61.675781 9.203125 -62.453125 11.359375 -62.453125 C 13.515625 -62.453125 15.367188 -61.675781 16.921875 -60.125 C 18.484375 -58.570312 19.265625 -56.71875 19.265625 -54.5625 C 19.265625 -52.40625 18.484375 -50.546875 16.921875 -48.984375 C 15.367188 -47.429688 13.515625 -46.65625 11.359375 -46.65625 C 9.203125 -46.65625 7.347656 -47.429688 5.796875 -48.984375 C 4.242188 -50.546875 3.46875 -52.40625 3.46875 -54.5625 C 3.46875 -56.71875 4.242188 -58.570312 5.796875 -60.125 Z M 4.515625 -38.609375 L 4.515625 0 L 17.828125 0 L 17.828125 -38.609375 Z M 4.515625 -38.609375 "/></g></g></g><g fill="rgb(0%, 29.019165%, 67.83905%)" fill-opacity="1"><g transform="translate(834.274543, 65.660317)"><g><path d="M 4.515625 0 L 4.515625 -64.71875 L 17.828125 -64.71875 L 17.828125 0 Z M 4.515625 0 "/></g></g></g><g fill="rgb(0%, 29.019165%, 67.83905%)" fill-opacity="1"><g transform="translate(852.861201, 65.660317)"><g><path d="M 13.09375 -16.109375 C 15.5 -16.109375 17.539062 -15.265625 19.21875 -13.578125 C 20.90625 -11.898438 21.75 -9.859375 21.75 -7.453125 C 21.75 -5.085938 20.90625 -3.066406 19.21875 -1.390625 C 17.539062 0.285156 15.5 1.125 13.09375 1.125 C 10.738281 1.125 8.71875 0.285156 7.03125 -1.390625 C 5.351562 -3.066406 4.515625 -5.085938 4.515625 -7.453125 C 4.515625 -9.859375 5.351562 -11.898438 7.03125 -13.578125 C 8.71875 -15.265625 10.738281 -16.109375 13.09375 -16.109375 Z M 13.09375 -16.109375 "/></g></g></g></svg>